/* XPM */
static char *result[] = {
/* columns rows colors chars-per-pixel */
"64 64 95 2 ",
"   c #000000",
".  c #040907",
"X  c #02020C",
"o  c #030B0B",
"O  c #0B0C0C",
"+  c #001107",
"@  c #04130C",
"#  c #0E100F",
"$  c #011B0C",
"%  c #010114",
"&  c #00001C",
"*  c #0E0F1D",
"=  c #011513",
"-  c #001A17",
";  c #091817",
":  c #001D1A",
">  c #121412",
",  c #161816",
"<  c #15161A",
"1  c #151B1A",
"2  c #1A1C1A",
"3  c #002400",
"4  c #012C0D",
"5  c #062513",
"6  c #002D14",
"7  c #00221E",
"8  c #0D201D",
"9  c #1E211E",
"0  c #013811",
"q  c #003718",
"w  c #003D1B",
"e  c #000020",
"r  c #1D1F22",
"t  c #1C1D30",
"y  c #002420",
"u  c #1E2224",
"i  c #232523",
"p  c #262A26",
"a  c #2B2C2B",
"s  c #2E312F",
"d  c #27283B",
"f  c #253D39",
"g  c #313431",
"h  c #363936",
"j  c #3B3D3B",
"k  c #004800",
"l  c #004214",
"z  c #00441E",
"x  c #005318",
"c  c #005C1B",
"v  c #00661E",
"b  c #006B1F",
"n  c #004820",
"m  c #3E423E",
"M  c #006C20",
"N  c #424442",
"B  c #454945",
"V  c #4B4E4B",
"C  c #4E514E",
"Z  c #535653",
"A  c #565956",
"S  c #585758",
"D  c #5A5D5A",
"F  c #5E615E",
"G  c #636563",
"H  c #666966",
"J  c #696D69",
"K  c #6E726E",
"L  c #727572",
"P  c #767976",
"I  c #7B7D7B",
"U  c #7F817F",
"Y  c #838483",
"T  c #878887",
"R  c #8D8D8D",
"E  c #8E908E",
"W  c #908F90",
"Q  c #919191",
"!  c #979997",
"~  c #9B9C9B",
"^  c #9EA09E",
"/  c #A09FA0",
"(  c #A3A4A3",
")  c #A7A9A7",
"_  c #A8A7A8",
"`  c #ABABAB",
"'  c #AFB0AF",
"]  c #B3B4B3",
"[  c #BBBCBB",
"{  c #BFC0BF",
"}  c #C0BFC0",
"|  c #C4C4C4",
" . c #C7C8C7",
".. c #CBCBCB",
"X. c #D3D3D3",
/* pixels */
"      e y               e e         y     e y   e y y n e e e n e n e y n e e n M e e y y   n y n e n n y e y y M M M J M 3 k 3 ",
"y e e                       y     e   e e y   e y y e     e n M y e y n y n y y M y y n e e M n y e M M y n e e J J J M   3 k M ",
"  y n   e e e       y   e       y     y     y   e   y e e y M n     n y e e n y e e y y y y n y n e n e y n   y b M e y y n 3 J ",
"n y n     M M   e   e y     e       y e   y y   e y   e e n n e y n M y y e y y e   y   n   y y M e y y   y n   & n   y n n n M ",
"n n   n y y   M n   e y     e y e e y     y     y y e y   n y y y M y y n n y y e y     y n y y e y n n n y y y n n 7 b J z n 3 ",
"n M y y n y e e   n e n y     n   y   y   y   e y e e y   e e e y 7 e n n y n y y n n e   y M y y n   y e y y y n z b J z J J 3 ",
"y n n y e y y e y     e   e     y   e e   y y y n e y y   y y y n y y n y y n e y e y     e y n y e   y y y     n n M K b J M e ",
"y y n   e         e e y n     n n       y n y   y y y   e e   e e y e y e n n e e               e     y     e   n y M z J M 3 e ",
"y   y y y e n y e   y y n     n M       n y   e y y e y y       e   e   e n y e         e         e           e n n M K b 7 e 3 ",
"y   y e y y M M n   n n     M M n             e n M n y y e   e e e e   e y                                     M y e     7   3 ",
"e   e   n M e n n           y y   e y   e e n n y   e y e y e e   e e y y e       e   e                         y e y y e     3 ",
"      e y n n       e     n y e   y y e     e e y y e e   e   e   e e e   y y e y           y     y       e   e y y   y e y   3 ",
"n y   n y y M n   M   y   e y     M   e n y y e     y y y y   e     e   e e y   y   e             y           e       y       k ",
"M M   n M y e e y y e     e y   n M n   n n     e   n n   e   e y   7 & & & & & 7   y e   e     y       e   e       e         k ",
"  M e y n M   y y   n y n n   y n e M e y n   M n   y n y y     e & X X   X     &   y         e y e       y     e             k ",
"y M n   e n       n M y y y y n   y M M y     y M M M e e & 7     & # O O O O = & &   y e     y y             e   y     e   3 k ",
"  e e       y e y n n n n e n y y y y n e e M e   n M         X * r g g g g s i . %   y y e y y n n y y e y     y M y e y   3 k ",
"y e e e       n   n   n   e n n y   e M e y M y     z   8 . O > i j A G H J H N 2 %   7     y y e   y n y e   e y n   y     3 k ",
"e y e   y   e       n   e n n y y M n M M e n M y & %   O u s h m Z H Y ! _ ( I m 9 = = 7 n n e y e n n y       n e   n y   3 k ",
"    e e e y e     e e     e e   M n   y M e & & w . O , p m D G G G J E [ .. ._ P N , @ 7     y y y   y   e e y e y e M M   3 k ",
"e     e y y e   e e         e n n e y e M   % . * 2 g m Z H P U I I I Q ' [ ] ] ( I m 9 %   7 z n   y e e e y n   y b J n   3 k ",
"  y   e y e                   e e   e e     . O 9 m D K U T T R R R T Q ! ! ~ ` } _ L m < @ q z 7   y n y   y y   e M n n 3 3 3 ",
"  y e   e y   e   y     e                 . # i m F I T W Q W Q E E Q Q R R W / ' _ T G j u 5 = &   7 n y y n n e M M M M 3 k 3 ",
"    y y       y     e e   e         &     # i j F P T Q W W Q E W Q E Q W W W Q ! ! W U H N 2 = &   b n y y   e b J J M M 3 k 3 ",
"    y     y       e e   e y y     = % X # i m F P T W Q E W Q Q W Q Q E W W W E W W W T U G j 2 ;   z y   e   e M M M J M 3 k 3 ",
"          y       e y   y y :     . . > i m F P T Q Q E W Q W R E E Q Q Q E W W W W W W R U H N , X   e 7 y   n J J J M   3 k M ",
"      e   y y y   e     & :   . # 2 a g m D P T R Q W Q Q W E T Y Q ` _ ! W E R R R W W W R U G j 2 ; % & e e n b M e y y n 3 J ",
"      e e   y y     y   e     > i m S F G P T R Q Q E W W Q W U L Q } ] ! E Q Q ! Q Q Q Q Q W I H m > o       e & n   y n n n M ",
"    y   e e       e y y       2 m F P I I Y W Q W Q Q W E Q Q Y U Q ] ( Y R _ ] ' ' ' ' ] _ ! T L V ,   %   e y n n 7 b J z n 3 ",
"e e y     y         y y &   # g F I T R R R Q Q W W E W W W E R R Q ! R I E [ .......... .] ~ T L V , X : 7 e   n z b J z J J 3 ",
"  y y   y e y y y   & % % < a Z P T Q Q R R W R R R Q Q R Y Y Q ) ~ Y Y Q ^ _ ` ` [ X...] ( Q R U S ,   7     y n n M K b J M e ",
"e e y y     y e   y 7 % O s D P T R E Q Q Q Q Q Q Q W Q Q U P ! { ) I E [ ` T I I ~  .} W U R W R G 9   : 7 e e n y M z J M 3 e ",
"      y e y y y   y     O N P R W T U ! ` ' ` ' ) Q T Q ) E K ! ..' P Q ..[ Y J H E | [ T I T Q Q J a . % % 7 e n n M J b y e 3 ",
"      y   y   y       X O V Y Q R I I ~ | ...... .^ U ! { ^ P !  .' P E  .{ ! P K E | | ! T R Q Q P h > o     y M y e     y   3 ",
"  y                   . , Z R R Y T ! _ [ } [ } [ Q L ^ ..{ ! ^ ) ! U E ) ' ` E L E | | ^ R Q Q W I C a O   % n y e 7 y e     3 ",
"  e     y             O i F T U P ~ [ ] ^ / / ( ~ Y L ! ..X.| ) Y U T Y U ^ { ) P E | | ~ E E Q W Y H N > .   n y y       e y e ",
"                    . 2 m K T P L ( X.| ` _ _ ^ E Y U E )  .X.] U U T U K Q  .] I R | | ~ W E Q W T L V < @ - 7 y       M M e e ",
"                    O g F U T I L ( X.X... .| ` Q T T U T ) ..[ Q T E U K Q  .] I R | | / E W Q ! T P V , + :   y y   M J z M e ",
"    y               > m J Y R U U Q ]  .X.X.} _ Q T Y T E ^ ' ' ) / E U K Q  .{ Y R ] ] ! W E Q W T P V 2 + - y   e M J n M e e ",
"n                 # 9 V K U R R T U T ' X.} ^ ! E U P Q ] ( T ^ | ] ! U K E | { ! R ! ~ W W W W W Y L V , o   7 y e M n M y y e ",
"                  > a V J Y E Q R L L ^ X.] Q E R P K ~ ..` P ! ..| ! Y I Q ] ] ! E W E W W W R T I K C ,   : n y y M M   y M M ",
"                  # p V J U R ! R I L ^ ..[ ! E W I K ~ .._ L Q ..{ ! T T E ~ ~ W W W W W E W T P K K C 2 . - 7     M y   M J n ",
"                . # p V J Y R Q R P L ( X.| _ _ ) R I ! [ ^ U ! [ ' ! W E R Y E ( / W W W W W Y K J J C 2 X : 7 y y y y   J z J ",
"                . # p V J Y R Q R L L ^ X.X. . .| _ W E ~ ! T Q ~ ~ Q W W Y P Q [ ] ~ R W ! W Y K J J Z s 1 7 7 y e y y b b J J ",
"  y     y   :     > a V J I Y R W U I ~ [ | | | } ` Q W Q E Q W W W R E E Y P T ` ] _ ~ Q R W Y K K K H B p 8 : 7   e y J b J b ",
"y     e n y   $   # a V H K L Y R T R Q ^ ( ( ( ( ~ Q W W W W E W E W E W R T Y Y ~ [ [ ! E W Y K K U I G N <   & y e   b J M e ",
"    y y n y   $ . # p C J J J U W W E W E E W W E E Q W W R W T Y W ( _ ( _ ( ~ R ) ....' ~ W T I I R T P C , + - z e e M       ",
"e   n n n     $ . # p V H J J U W E E W W R W W W W E E W W W U P Q [  .|  .| } [ | X.X...[ ~ R Y T E T L C 2 . : z y y n e   3 ",
"    n n y   & o . O 9 j A F K I T R W W W W W W W R Y Q / _ ( ! R / [  .| | | } [ | X.X. .] ! R E E Q T P C ,     n n y M y 3 3 ",
"e       e   w       O 9 j Z J K P Y W W W W W W W U I ! }  .| } [ ' _ ( ( _ ( ! R ) ....' / Q W Q Q Q T L C 2 X - y n e y n 3 3 ",
"y n y e e M c       . > p j V V Z F L U T R W W W U P ! [  .|  .| ' ! W E W T Y T ~ [ ] ~ W W W Q W R I G m ,   % y e   y y 3 3 ",
"y y M y y M & @       > 9 i 2 2 r a N D P Y W ! W T T W ( _ ( _ ( ~ E W R Y P R ` ] _ ~ Q W W Q W T I G B i O X - y   y e y   3 ",
"n y n y n n & $       # , # O # 2 a j B V F L U T R W W Q Q E Q E E Q W W Y P E [ ] ~ E W W E Q Q T P S g 2 .         y       k ",
"n n   y y y & X       . O O 2 s V F H N i a N D L Y W W W W R W W W W E W R Y E ^ ^ Q W W W E E Q T L A s , . X     e         k ",
"y y y y y y c o         O 9 g C H Y Y S a p g B D K Y R W E Q W W Q Q W E W W W Q Q Q E W W R T T I H B p > @ 4 &             k ",
"y y y   y n w o       O 2 h Z F J U W I G S C N j Z L Y R E W Q W W Q E E E W W W W Q Q Q T I P I H B a , . X q   7     e   3 k ",
"y y y y y M   = +   . # p V H J J I Y T Y I J B p g S K Y T T R E Q W Q W W Q W Q W T T R I G S A N p , @ 4   & 7 M y e y   3 k ",
"y y y     7 7 c l o   > p V H J J L P P I Y I V , 2 h S L I I Y Q Q W W Q W Q Q W R I I P H N g p 2 # @ 0 x n   y n   y     3 k ",
"y y   y   y   n l $   O 9 m D H J J J J J U U B O . 2 g C S Z F K L L I Y T R Y I J D Z Z N p < o o + o - y z y n e   n y   3 k ",
"y e e e e   y e 7     . # i m A J J J J J P L j .   O , 9 i i a s s s V K I P H V h p i 9 2 # . =   = - 7   y y e y e M M   3 k ",
"e y   y e y y e : @       O i j Z Z Z Z Z A C s O     o .   . . . . O i V F S N a > O o . o @     z v 7 7 n y     y b J n   3 k ",
"      e y e e     : = .   . O , i p p i p i i 9   - =         = = ;   # r d f t O .   = %       7 b n y y M n e   e M n n 3 3 3 ",
"e e   e     y y y     = . . . o O @ @ o o @ @ = & 7 e           :       X * e e     7 7   7 7 7   n y e n M y n e M M M M 3 k 3 ",
"e e   y y         y 7   %   % = 6 6 - l = - 6 : y   y   y       y y   7 . e y e     y   y y M y   y n e M y n n b J J M M 3 k 3 "
};
