/* XPM */
static char *e9a571e86d974d67bf5cafe93c2a38b5SeE4SPwwn4cfPB1E[] = {
/* columns rows colors chars-per-pixel */
"64 64 9 1 ",
"  c black",
". c #000020",
"X c #002420",
"o c #004820",
"O c #006C20",
"+ c #686C68",
"@ c #002400",
"# c #004800",
"$ c white",
/* pixels */
"   .X       ..    X  .X .XXo...o.o.Xo..oO..XX oXo.ooX.XXOOO+O@#@",
"X..           X  . ..X .XX.  .oOX.XoXoXXOXXo..OoX.OOXo..+++O @#O",
" Xo ...   X .   X  X  X . X..XOo  oX..oX..XXXXoXo.o.Xo XOO.XXo@+",
"oXo  OO . .X  .   X. XX .X ..oo.XoOXX.XX. X o XXO.XX Xo .o XoooO",
"oo oXX Oo .X  .X..X  X  XX.X oXXXOXXooXX.X  XoXX.XoooXXXooXO+oo@",
"oOXXoX.. o.oX  o X X X .X..X ...XX.ooXoXXoo. XOXXo X.XXXooO+o++@",
"XooX.XX.X  . .  X .. XXXo.XX XXXoXXoXXo.X.X  .XoX. XXX  ooO+O+O.",
"XXo .    ..Xo  oo   XoX XXX .. ..X.X.oo..       .  X  . oXOo+O@.",
"X XXX.oX. XXo  oO   oX .XX.XX   . . .oX.    .    .     .ooO+OX.@",
"X X.XXOOo oo  OOo      .oOoXX. .... .X                  OX.  X @",
". . oO.oo     XX .X ..ooX .X.X.. ..XX.   . .            X.XX.  @",
"   .Xoo   .  oX. XX.  ..XX.. . . ... XX.X     X  X   . .XX X.X @",
"oX oXXOo O X .X  O .oXX.  XXXX .  . ..X X .      X     .   X   #",
"OO oOX..XX.  .X oOo oo  . oo . .X X.....X X. .  X   . .   .    #",
" O.XoO XX oXoo Xo.O.Xo Oo XoXX  .... .  . X    .X.   X  .      #",
"XOo .o   oOXXXXo XOOX  XOOO...X  .X. ..X.. X.  XX      . X  . @#",
" ..   X.Xoooo.oXXXXo..O. oO     ...X. .. . XX.XXooXX.X  XOX.X @#",
"X...   o o o .ooX .O.XOX  o X .. ... ..  . X  XX. XoX. .Xo X  @#",
".X. X .   o .ooXXOoOO.oOX..  .   ..XX  . XXXXoo.X.ooX   o. oX @#",
"  ...X.  ..  .. Oo XO...o .XX  ... . ..X.X.XX  XXX X ..X.X.OO @#",
".  .XX. ..    .oo.X.O . . .  ..  ... X. X.X.. Xoo X...Xo XO+o @#",
" X .X.         .. ..       . .. .  .....X.XX.XooX XoX XX .Ooo@@@",
" X. .X . X  .              .       X.. .. X  XoX. XoXXoo.OOOO@#@",
"  XX   X  .. .    . ..    X     .X.XXXXX.  XX.XX. OoXX .O++OO@#@",
"  X  X   .. .XX  X....     .   .....  X.X.XX....X oX . .OOO+O@#@",
"     X   .X XXX  .    .   X. . X.. ..o.   o XXXX   .XX o+++O @#O",
"   . XXX .  .X  XX  .... .    ..ooX .Xoo.Xo Xo. o X....oOO.XXo@+",
"   .. XX  X .  ..  XX  ..    . . o ...Xo oo.oo.ooX X   ..o XoooO",
"  X ..   .XX    X. ..  ..X    .o.XXoo X... Xo XX.XX . .XooXO+oo@",
"..X  X    XX. ..  XXXX  .     Xo..X oX..Xo  oX. X  .XX. ooO+o++@",
" XX X.XXX ....   .. .  .    oo Oo XXXX .XX ..   ..  X  XooO+O+O.",
"..XX  X. XX.   .X . .X     X.Oo  Oo X ooXXX.  X     XX..oXOo+O@.",
"   X.XXX X   X.  ..  X .X...X   .Xo X.oo  XX . X. . ..X.ooO+OX.@",
"   X X X   .X X    X ... .o   oXX.XXoXXX.X X.     X X  XOX.  X @",
" X          . .   X X..X   o  oo  XoOO X X   .X  X.   .oX.XX.  @",
" .  X       .     .  X .  X . .X oo.oooXX ..  X   XX.X oXX   .X.",
"             .X   X.  XXoo  X X .oOO. X. X X  .  X XooXXX   OO..",
"          X       XX  X..o .Xo o.XXoX. .    .     XoooX XX O+oO.",
"  X             .X.X .Xo.. X  oooX    ...   ...X.X .ooXX .O+oO..",
"o               .   o.Xo  o.oO. O.   X         ..oo Xo XX.OoOXX.",
"           .    o .ooX   oO..OoXX .    .      . . oXX XoXXOO XOO",
"          .     o .o  .o.O   .O  .       .    . ..XoXXXX  OX O+o",
"          X     X   X oo... XX     .    . X .. XXXX.X.XXXXXX +o+",
"          X   XX.     X   XXoX.      X  . XX.. X X.X.XXXX.XXOO++",
" X  X X X. . .X   .  .   . ooX.  X  X ..X X XX     X. XXX .X+O+O",
"X  .oX oo. .o   XXX  . X  XO ..       .. XX.  X   .  .. .X. O+O.",
"  XXoX oX oOo X.XOX       X .X    XX.. X  ..XXX X XX.XXoXo..O   ",
". ooo  o  OO oO oX. .  .   X      XX .  .XX..X.  .. XX XXoXXo. @",
"  ooX .X . o.OXX   X . ..     .X . .. ...X X.X .X   ..X. ooXOX@@",
".   . o XX.   .oO oX          ..X..... X  XOOo.  . .oO..XXo.Xo@@",
"XoX..OO   X . Xoo X  XX ..X.  ..X.X..XXX XX.X...X.XXXOO .X. XX@@",
"XXOXXO.X  X. . O.    XXX.XX.X XXXXXX.. Xo .ooX.X.X o..o.XX X.X @",
"oXoXoo.oOoX ...   . . X XXo XX.X.oX.oX Xo.XXOo  .X.o.XX.   X   #",
"oo XXX..ooX.oo.     XoX.oXX.X..X.XX oooXXoX..OXX...OO...  .    #",
"XXXXXXOX..XOoO.o..ooX.X. .XX XoX.oo  Oo XoOo.XXX.XXXo.OO.      #",
"XXX XooX .XoXXooXOOo..oo  Xo XoX.oXX.XoX  oOoXXoo..XX .o X  . @#",
"XXXXXO Xoo XX.Oo.Ooo.XoO.XoX ooXXoX XXXXOXX OXXXOO.ooO .XOX.X @#",
"XXX  XXOOXXXXX.XXo   XOX.OoXXX..X.XXXoXXOOXX  XX.OooOOo Xo X  @#",
"XX X X oooOooXXX XX  . X..XXXooXXOoX Oo Xo X XXXXXoXXXoXo. oX @#",
"X.... X.X X XXXXXXOX X        X    X  .      Oo X XXX XX.X.OO @#",
".X X.XX.XX   XXOXoXXXX XX .X         X    .X.XO  oOXXoX  XO+o @#",
"   .X..  XXXX oXXX.XOo X XX    XXX   .X.   X.   XOoXXOo. .Ooo@@@",
".. .  XXX  XXXXXXooXXOoX.X.     X    ...  XX XXX oX.oOXo.OOOO@#@",
".. XX    XX . .XooXOXXoXX X X   XX X .X.  X XXOX Xo.OXooO++OO@#@"
};
