/* XPM */
static char *db2a504abe89425acdac3461863325e0c09iHLWGydVY8oa8[] = {
/* columns rows colors chars-per-pixel */
"64 64 198 2 ",
"   c #000000",
".  c #0D0100",
"X  c #010B02",
"o  c #0E0901",
"O  c #01000D",
"+  c #0B000B",
"@  c #010C0A",
"#  c #0B0B0C",
"$  c #130101",
"%  c #1B0101",
"&  c #120901",
"*  c #14000A",
"=  c #011301",
"-  c #051D05",
";  c #00120E",
":  c #081908",
">  c #0B1B0B",
",  c #1D1B08",
"<  c #010014",
"1  c #00001D",
"2  c #011513",
"3  c #081210",
"4  c #001916",
"5  c #001E1A",
"6  c #111712",
"7  c #240102",
"8  c #230703",
"9  c #2C0101",
"0  c #320102",
"q  c #3C0101",
"w  c #380B00",
"e  c #002400",
"r  c #03220D",
"t  c #0D220D",
"y  c #0A280A",
"u  c #002F14",
"i  c #00221E",
"p  c #132413",
"a  c #023413",
"s  c #003D1B",
"d  c #1B331C",
"f  c #1F3C1F",
"g  c #000020",
"h  c #002420",
"j  c #262B27",
"k  c #233924",
"l  c #283B28",
"z  c #353435",
"x  c #440000",
"c  c #4D0201",
"v  c #540100",
"b  c #5B0200",
"n  c #590900",
"m  c #50140E",
"M  c #610100",
"N  c #6C0100",
"B  c #620E00",
"V  c #6B0A00",
"C  c #730500",
"Z  c #7C0200",
"A  c #720800",
"S  c #780E00",
"D  c #6C1A00",
"F  c #772304",
"G  c #004800",
"H  c #004F17",
"J  c #00461F",
"K  c #005017",
"L  c #005519",
"P  c #00661E",
"I  c #006B1F",
"U  c #004820",
"Y  c #274027",
"T  c #294129",
"R  c #364C36",
"E  c #3E533E",
"W  c #006C20",
"Q  c #404441",
"!  c #475547",
"~  c #4D5C4D",
"^  c #565C56",
"/  c #576557",
"(  c #656F65",
")  c #686C68",
"_  c #667166",
"`  c #6B756B",
"'  c #747274",
"]  c #757D75",
"[  c #797B79",
"{  c #820400",
"}  c #8C0400",
"|  c #870D00",
" . c #8A0B00",
".. c #930500",
"X. c #920B00",
"o. c #9D0900",
"O. c #8C1200",
"+. c #921200",
"@. c #9C1500",
"#. c #9D1900",
"$. c #9B1D0C",
"%. c #801E1C",
"&. c #A30D00",
"*. c #A80E00",
"=. c #A31500",
"-. c #AC1400",
";. c #A91B00",
":. c #B01600",
">. c #B21A00",
",. c #8F240E",
"<. c #A62704",
"1. c #B52501",
"2. c #BA2300",
"3. c #B62C00",
"4. c #B82A06",
"5. c #C32C00",
"6. c #C43100",
"7. c #CD3600",
"8. c #C53C00",
"9. c #CF3902",
"0. c #D03700",
"q. c #D33D00",
"w. c #93452D",
"e. c #C14C07",
"r. c #D64200",
"t. c #DD4600",
"y. c #DE4A00",
"u. c #DE5300",
"i. c #D75D00",
"p. c #DE5B01",
"a. c #C74B1C",
"s. c #E04A00",
"d. c #DE6300",
"f. c #DE6B00",
"g. c #DE6E0A",
"h. c #DE7301",
"j. c #DE760B",
"k. c #DB7B0C",
"l. c #DE6116",
"z. c #DE7514",
"x. c #CE4F24",
"c. c #CF522B",
"v. c #C1602A",
"b. c #DD672B",
"n. c #DE6D39",
"m. c #B86B5C",
"M. c #D47C55",
"N. c #7E857E",
"B. c #DE8401",
"V. c #DE840D",
"C. c #DE8D0B",
"Z. c #DE940A",
"A. c #DE8915",
"S. c #DE991D",
"D. c #DE8E2D",
"F. c #DF8E3C",
"G. c #DE9430",
"H. c #E08E3C",
"J. c #DEA636",
"K. c #D79B44",
"L. c #DC815C",
"P. c #DEA446",
"I. c #DEAA4B",
"U. c #DFB14E",
"Y. c #DEAC5A",
"T. c #DEB25C",
"R. c #D98566",
"E. c #DF9B6E",
"W. c #DE9F75",
"Q. c #DFA175",
"!. c #DEB772",
"~. c #838783",
"^. c #8C918C",
"/. c #9C9B9C",
"(. c #A6A5A6",
"). c #A9A6A9",
"_. c #ACABAC",
"`. c #B0ACB0",
"'. c #B9B6B9",
"]. c #DEAA8A",
"[. c #DEBC8D",
"{. c #DBAA99",
"}. c #DDB794",
"|. c #E1AE9D",
" X c #DEC79C",
".X c #DFCCA6",
"XX c #DECBB7",
"oX c #C2BEC2",
"OX c #C5C2C5",
"+X c #C9C6C9",
"@X c #CDCACD",
"#X c #DFCDC7",
"$X c #D8D3D4",
"%X c #D9D6D9",
"&X c #DDDADD",
"*X c #E0CECA",
"=X c #E1DEE1",
"-X c #E3E0E3",
/* pixels */
"      g h               g g         h     g h   g h h U g g g U g U g h U g g U W g g h h   U h U g U U h g h h W W W ) W e G e ",
"h g g                       h     g   g g h   g h h g     g U W h g h U h U h h W h h U g g W U h g W W h U g g ) ) ) W   e G W ",
"  h U   g g g       h   g       h     h     h   g   h g g h W U     U h g g U h g g h h h h U h U g U g h U   h W W g h h U e ) ",
"U h U     W W   g   g h     g       h g   h h   g h   g g U U g h U W h h g h h g   h   U   h h W g h h   h U   g U   h U U U W ",
"U U   U h h   W U   g h     g h g g h     h     h h g h   U h h h W h h U U h h g h     h U h h g h U U U h h h U U h W ) U U e ",
"U W h h U h g g   U g U h     U   h   h   h   g h g g h   g g g h h g U U h U h h U U g   h W h h U   h g h h h U U W ) U ) ) e ",
"h U U h g h h g h     g   g     h   g g   h h h U g h h   h h h U h h U h h U g h g h     g h U h g   h h h     U U W ) W ) W g ",
"h h U   g         g g h U     U U       h U h   h h h   g g   g g h g h g U U g g               g     h     g   U h W U ) W e g ",
"h   h h h g U h g   h h U     U W       U h   g h h g h h       g   g   g U h g         g         g           g U U W ) W h g e ",
"h   h g h h W W U   U U     W W U             g U W U h h g   g g g g   g h                                     W h g     h   e ",
"g   g   U W g U U           h h   g h   g g U U h   g h g h g g   g g h h g       g   g                         h g h h g     e ",
"      g h U U       g     U h g   h h g     g g h h g g   g   g   g g g   h h g h           h     h       g   g h h   h g h   e ",
"U h   U h h W U   W   h   g h     W   g U h h g     h i i i   1     1   g g h   h   g             h           g       h       G ",
"W W   U W h g g h h g     g h   U W U   U U     g   U J   <   < 2   4 1 1 g g g h   h g   g     h       g   g       g         G ",
"  W g h U W   h h   U h U U   h U g W g h U   I J   i s 2 @         O <   1     1   h         g h g       h     g             G ",
"h W U   g U       U W h h h h U   h W W h     i L K H < * 7 7 7 7 7 % +   1 1 5 1 g   h g     h h             g   h     g   e G ",
"  g g       h g h U U U U g U h h h h U g g P <   ; r $ q b M M M M c 8 O   O <   g   h h g h h U U h h g h     h W h g h   e G ",
"h g g g       U   U   U   g U U h   g W 1 i L 3 $ % 8 w V X.@.#.$.$.%.m 8 % $ .   1   h     h h g   h U h g   g h U   h     e G ",
"g h g   h   g       U   g U U h h W U W P < r , x n D ,.<.3.8.e.v.m.m.w.F B c 0 . 2 5 i h U U g h g U U h       U g   U h   e G ",
"    g g g h g     g g     g g   W U   i L O * q A @.3.8.r.r.i.k.K.}.{.M.a.<. .b 7 # < i i     h h h   h   g g h g h g W W   e G ",
"g     g h h g   g g         g U U 1 i < a % q V #.5.q.s.s.u.f.C.U..X*X|.L.c.4.| v 9 # < 1   h U U   h g g g h U   h W ) U   e G ",
"  h   g h g                   g 1   1 O $ x C #.6.r.t.y.y.u.f.C.I..X$X#X{.L.a.1. .b 9 # < i J U h   h U h   h h   g W U U e e e ",
"  h g   g h   g   h     g             % q V =.5.q.y.y.t.t.y.p.j.G.!. X X[.Q.M.c.4.O.v 9 $ 4 s i g   h U h h U U g W W W W e G e ",
"    h h       h     g g   g         * x C #.6.q.t.y.y.y.y.y.u.p.z.G.J.P.I.!.].R.x.1. .b 9 + 2 5 g   W U h h   g W ) ) W W e G e ",
"    h     h       g g   g i i     & q A =.5.r.y.u.u.u.u.y.y.t.y.p.j.V.C.S.T.[.E.b.7.-.Z q . O 1 h   U h   g   g W W W ) W e G e ",
"          h       g h   h i 4   % x V #.5.q.y.p.f.h.h.f.p.y.t.y.u.p.f.B.Z.J.I.H.l.7.-.Z q . @ 5       g h h   U ) ) ) W   e G W ",
"      g   h h h   g     1 5   $ q A =.5.r.y.u.g.A.S.S.A.g.u.y.y.y.y.p.h.B.C.A.j.p.9.>. .c % +   J   h g g g g U W W g h h U e ) ",
"      g g   h h     i   < . 7 x V #.5.q.y.p.g.D.Y.!.!.Y.D.g.p.y.t.t.u.d.f.h.f.d.u.q.5.;.S c 7 t a 5   h       g g U   h U U U W ",
"    h   g g       g i 5   . q C @.5.r.t.u.f.V.P.[.XXXX[.P.V.f.u.t.t.y.y.u.u.u.y.y.t.r.6.;.Z x & O 5 i   g   g h U U h W ) U U e ",
"g g h     h         i 5 O $ x { >.0.s.s.y.d.j.F.W.{.{.Q.F.j.d.u.y.y.y.y.y.t.t.y.y.y.y.q.2.} v % @     g h h g   U U W ) U ) ) e ",
"  h h   h g h h h   1 1 O $ x { >.9.y.s.y.u.p.l.b.n.n.b.l.p.u.y.y.y.y.y.y.t.t.y.y.y.y.q.2.} v % O <     h     h U U W ) W ) W g ",
"g g h h     h g   h i 1   $ x { -.5.0.t.y.y.y.y.y.t.q.9.9.7.7.7.7.7.0.r.y.y.y.y.y.y.y.q.2.} v %         h h g g U h W U ) W e g ",
"      h g h h h   h       $ x { &.-.2.9.t.s.y.s.t.0.2.>.-.:.>.>.:.>.2.7.t.s.y.y.y.y.y.q.2.} v % O   1   g g h g U U W ) W h g e ",
"      h   h   h       1 ; . q N } ..=.5.0.q.q.q.q.3.#.{ { { { { { { +.3.q.t.y.y.y.t.r.7.>.} v %     i   h     h W h g     h   e ",
"  h                     < . 7 x M { o.:.2.2.2.2.2.#.V x x x x x x x b O.2.0.t.s.y.r.6.>.*.} v %   4 1       g U h g h h g     e ",
"  g     h               1     $ q N } ..........} V q $ . $ $ $ . $ 9 M X.2.q.t.r.7.>.o...Z c %     i h g h   U h h       g h g ",
"                          1 4   % x v b v v v b v q & X X X X X X X o 0 M +.1.5.5.2.*.} C v 0 .   5   h U U h h h       W W g g ",
"                    h           . $ % % % % % % % & : - - - - - - - : & 9 b X.&.&.o...Z v 7 .       i U U U h   h h   W ) U W g ",
"    h                           1 ; O @     X X X > d Y T T T T T T d > o 0 b N N N N b 0 + < 5 1 h   g U U h h   g W ) U W g g ",
"U                               1       u @ = = - d ! ( _ ( ( ( _ ( ~ k : & 7 9 9 9 9 7 $     1 g U U   h U   h h g W U W h h g ",
"                      g         J   1 s a - e y d E ] /././././././.~.~ d > o       . .     1   g   U h h   h U h h W W   h W W ",
"                    g           U   1 u   = y f ! ] (.'.OXoXoXoXoXoX_.N.~ j #               g   g g h U h h h h     W h   W ) U ",
"                    h           h       X = y R ` /.oX$X%X%X%X%X%X%X+X(.[ Q 6       2   1 1   h h h h g h g h h h h h h   ) U ) ",
"                    h       h h g         = y E N.`.@X&X-X=X=X=X=X=X$X'.^.! p X     4 i g g   h   h g h g h h h h g h h W W ) ) ",
"  h     h   h   h g   g   g h       1     X y R ] (.+X%X&X&X&X&X&X&X@X_.~.! p =     4   h h           h g   h h h   g h ) W ) W ",
"h     g U h   U U g   g U       h i 5     X - k / ~._.OX@X+X+X+X+X+X'.^./ T t X   2 5 1     h       g     g g   g h g   W ) W g ",
"    h h U h   U h   U W U   h g h I i       X > k ~ ~.(._.).(.).).(.^./ l t X @     1 1 h h h   h   h h g h h U h U g g W       ",
"g   U U U     U     W W   U W   U h 1   1     X > k ~ ' ' ' ' ' ' ' ^ l > X     1 i i g g h g     g g   h h   h h U h h U g   e ",
"    U U h   g h   g   U g W h h       h   1   O X > j z z z z z z z j 6 X   < 1 1 h   h g h   g h       g g h g   U U h W h e e ",
"g       g   U   h h g       g U W   U h             # # # # # # # # #     <   i     h W W U g     g   g U W g g h h U g h U e e ",
"h U h g g W W       h   g   h U U   h     h i   < O ; O     O O ; O 2 < < 5 i h   h h g h g g g h g h h h W W   g h g   h h e e ",
"h h W h h W g h     h g   g   W g         h i i 1 5 5 1 5   5 5 5 5 5 5 1 1   h U   g U U h g h g h   U g g U g h h   h g h   e ",
"U h U h U U g U W U h   g g g       g   g   h   i i J   i i 1 i 1 J i 1 J h   h U g h h W U     g h g U g h h g       h       G ",
"U U   h h h g g U U h g U U g           h U h g U h h g h g g h g h h   U U U h h U h g g W h h g g g W W g g g     g         G ",
"h h h h h h W h g g h W U W g U g g U U h g h g   g h h   h U h g U U     W U   h U W U g h h h g h h h U g W W g             G ",
"h h h   h U U h   g h U h h U U h W W U g g U U     h U   h U h g U h h g h U h     U W U h h U U g g h h   g U   h     g   e G ",
"h h h h h W   h U U   h h g W U g W U U g h U W g h U h   U U h h U h   h h h h W h h   W h h h W W g U U W   g h W h g h   e G ",
"h h h     h h W W h h h h h g h h U       h W h g W U h h h g g h g h h h U h h W W h h     h h g W U U W W U   h U   h     e G ",
"h h   h   h   U U U W U U h h h   h h     g   h g g h h h U U h h W U h   W U   h U   h   h h h h h U h h h U h U g   U h   e G ",
"h g g g g   h g h   h   h h h h h h W h   h                 h         h     g             W U   h   h h h   h h g h g W W   e G ",
"g h   h g h h g h h       h h W h U h h h h   h h   g h                   h         g h g h W     U W h h U h     h W ) U   e G ",
"      g h g g     h h h h   U h h h g h W U   h   h h         h h h       g h g       h g       h W U h h W U g   g W U U e e e ",
"g g   g     h h h     h h h h h h U U h h W U h g h g           h         g g g     h h   h h h   U h g U W h U g W W W W e G e ",
"g g   h h         h h   g   g h U U h W h h U h h   h   h       h h   h   g h g     h   h h W h   h U g W h U U W ) ) W W e G e "
};
