/* XPM */
static char *c4869267d46b4dcb866aad8582e8e76e9g6K4Dmh35LlWNfo[] = {
/* columns rows colors chars-per-pixel */
"64 64 198 2 ",
"   c #000000",
".  c #020905",
"X  c #00020C",
"o  c #020D0C",
"O  c #0B0B0B",
"+  c #02120C",
"@  c #041C0E",
"#  c #000214",
"$  c #000B14",
"%  c #0C0E13",
"&  c #00011C",
"*  c #000C1B",
"=  c #0C0C1A",
"-  c #011312",
";  c #0C1312",
":  c #011A15",
">  c #0A1917",
",  c #00121C",
"<  c #0E1219",
"1  c #001D1A",
"2  c #131314",
"3  c #111817",
"4  c #14141B",
"5  c #161B1C",
"6  c #1B1C1C",
"7  c #201F1E",
"8  c #002400",
"9  c #01220D",
"0  c #022311",
"q  c #012E15",
"w  c #00221E",
"e  c #0B211F",
"r  c #16241B",
"t  c #013315",
"y  c #043C14",
"u  c #00371A",
"i  c #003D1B",
"p  c #000020",
"a  c #000B23",
"s  c #0B0B20",
"d  c #00042B",
"f  c #000E2A",
"g  c #0E0E29",
"h  c #001022",
"j  c #001F23",
"k  c #00132B",
"l  c #001A2C",
"z  c #0C1A28",
"x  c #1B1C23",
"c  c #191927",
"v  c #000535",
"b  c #000D32",
"n  c #000D3B",
"m  c #011432",
"M  c #001D34",
"N  c #091936",
"B  c #00153B",
"V  c #001C3C",
"C  c #151936",
"Z  c #002420",
"A  c #092522",
"S  c #192725",
"D  c #14222E",
"F  c #043824",
"G  c #12302D",
"H  c #002031",
"J  c #00233C",
"K  c #182632",
"L  c #14243B",
"P  c #242424",
"I  c #26272E",
"U  c #2C2C2C",
"Y  c #25322D",
"T  c #292D33",
"R  c #2E3135",
"E  c #333333",
"W  c #3A3937",
"Q  c #35373A",
"!  c #3B3B3B",
"~  c #004800",
"^  c #004416",
"/  c #004C16",
"(  c #00451F",
")  c #005418",
"_  c #005A1A",
"`  c #00651E",
"'  c #00691F",
"]  c #004820",
"[  c #084825",
"{  c #2F483A",
"}  c #39403B",
"|  c #006C20",
" . c #126D2D",
".. c #000B45",
"X. c #000E4C",
"o. c #001544",
"O. c #021D44",
"+. c #00144A",
"@. c #001C4C",
"#. c #001551",
"$. c #001D54",
"%. c #001C5C",
"&. c #012543",
"*. c #002944",
"=. c #02254C",
"-. c #002B4D",
";. c #182E4A",
":. c #00304F",
">. c #1E344D",
",. c #002454",
"<. c #002C53",
"1. c #00235C",
"2. c #012C5B",
"3. c #003150",
"4. c #00345B",
"5. c #283946",
"6. c #353540",
"7. c #002463",
"8. c #002B63",
"9. c #002768",
"0. c #002D6B",
"q. c #013363",
"w. c #003B63",
"e. c #0A3865",
"r. c #00326C",
"t. c #003C6B",
"y. c #003473",
"u. c #013B73",
"i. c #053978",
"p. c #003C7C",
"a. c #133B73",
"s. c #193B73",
"d. c #3C4045",
"f. c #0A436D",
"g. c #004274",
"h. c #00437D",
"j. c #01497F",
"k. c #194C7F",
"l. c #23486C",
"z. c #3C566E",
"x. c #234B76",
"c. c #37567C",
"v. c #434343",
"b. c #434749",
"n. c #454B4C",
"m. c #4B4B4C",
"M. c #454850",
"N. c #535352",
"B. c #5C5C5C",
"V. c #4B7156",
"C. c #565B60",
"Z. c #556E60",
"A. c #5D6268",
"S. c #55647D",
"D. c #646464",
"F. c #60646A",
"G. c #696C69",
"H. c #606C77",
"J. c #747474",
"K. c #7C7C7B",
"L. c #004382",
"P. c #014A85",
"I. c #004788",
"U. c #004C8B",
"Y. c #00518E",
"T. c #004F91",
"R. c #005494",
"E. c #005893",
"W. c #005D9D",
"Q. c #315881",
"!. c #00609F",
"~. c #3A6793",
"^. c #005FA0",
"/. c #0060A0",
"(. c #6A778B",
"). c #727F8C",
"_. c #798195",
"`. c #848484",
"'. c #8B8B8B",
"]. c #949494",
"[. c #93979C",
"{. c #9B9B9B",
"}. c #989EA4",
"|. c #A2A2A2",
" X c #A6A6A6",
".X c #A8A7A7",
"XX c #A9A9A9",
"oX c gray67",
"OX c #B2B1AF",
"+X c #B2B2B2",
"@X c #B6B6B6",
"#X c #B9B9B7",
"$X c #B9B9B9",
"%X c #BBBBBB",
"&X c #BDBDBD",
"*X c #C0C0C0",
"=X c #C1C1C1",
"-X c gray76",
/* pixels */
"      p Z               p p         Z     p Z   p Z Z ] p p p ] p ] p Z ] p p ] | p p Z Z   ] Z ] p ] ] Z p Z Z | | | G.| 8 ~ 8 ",
"Z p p                       Z     p   p p Z   p w w & . O g [  .G g A ( w ( Z Z | Z Z ] p p | ] Z p | | Z ] p p G.G.G.|   8 ~ | ",
"  Z ]   p p p       Z   p       Z     Z     w   & . > c 6.n.V.Z.N.v.{ S c s ( w p p Z Z Z Z ] Z ] p ] p Z ]   Z | | p Z Z ] 8 G.",
"] Z ]     | |   p   p Z     p       Z p   w w . = S E v.D.`.].{.{.].K.D.b.c A A p   w   ]   Z Z | p Z Z   Z ]   p ]   Z ] ] ] | ",
"] ]   ] Z Z   | ]   p Z     p Z p p Z     : O P v.D.K.`.].XX&X*X&X&X&XXX'.B.v.Y s e     Z ] Z Z p Z ] ] ] Z Z Z ] ] Z | G.] ] 8 ",
"] | Z Z ] Z p p   ] p ] Z     ]   Z   1 O 6 ! J.{.@X@X%X%X&X%X@X&X*X*X&X%XXX'.B.R Y F &   Z | Z Z ]   Z p Z Z Z ] ] | G.] G.G.8 ",
"Z ] ] Z p Z Z p Z     p   p     Z   & # P N.K. X&X*X*X*X*X%X X{.%X*X*X*X*X*X@X].G.m.Y O   p Z ] Z p   Z Z Z     ] ] | G.| G.| p ",
"Z Z ]   p         p p Z ]     ] (     2 v.`.XX&X*X*X*X*X&X X`.K.XX*X*X*X*X*X&X@X{.J.b.P O       p     Z     p   ] Z | ] G.| 8 p ",
"Z   Z Z Z p ] Z p   Z Z (     ( _   2 ! J. X&X*X*X*X*X*X%X{.D.N.].@X*X&X*X*X*X*X@X].D.E 4         p           p ] ] | G.| Z p 8 ",
"Z   Z p Z Z | | ]   ] ]     | ' t O U G. X&X*X*X*X*X*X*X&X XD.E B.'.XX+X&X*X*X*X&XXXG.I O                       | Z p     Z   8 ",
"p   p   ] | p ] ]           w w   3 N.{.&X*X*X*X*X*X*X*X*X%X].N.U v.G.'.+X&X*X*X&X XD.P                         Z p Z Z p     8 ",
"      p Z ] ]       p     ] w # O U J.XX*X*X*X*X*X*X*X*X&X%X{.G.v.P P m.'.XX%X%XXX`.N.6     Z     Z       p   p Z Z   Z p Z   8 ",
"] Z   ] Z Z | ]   |   Z   & w   3 N.].%X*X*X*X*X*X*X*X*X&X|.K.D.! 2 . 6 ! J.'.].`.B.U O           Z           p       Z       ~ ",
"| |   ] | Z p p Z Z p     & : O U J.XX*X*X*X*X*X*X*X&X*X%X].D.m.6 2 6 6 O U v.v.v.I > &   p     Z       p   p       p         ~ ",
"  | p Z ] |   Z Z   ] Z ] i   3 b.`.+X*X*X*X*X*X*X*X%X+X X`.B.! 3 ! D.B.I P E P O   1         p Z p       Z     p             ~ ",
"Z | ]   p ]       ] | Z Z 1 - I D.`.+X*X*X*X*X*X*X%XXX`.G.n.T K D H.}.'.D.N.G.N.% X   Z p     Z Z             p   Z     p   8 ~ ",
"  p p       Z p Z ] ] ] ] & 0 U G.'.+X*X*X*X&X&X%X XK.B.R L 2.q.e.Q.(.K.B.E ! U . &   Z Z p Z Z ] ] Z Z p Z     Z | Z p Z   8 ~ ",
"Z p p p       ]   ]   ]   & 0 I D.`.XX&X&X&X@X|.].J.v.I N 1.L.U.i.c.).'.D.P U P   &   Z     Z Z p   Z ] Z p   p Z ]   Z     8 ~ ",
"p Z p   Z   p       ]   p i : 6 N.J.{. X|.|.{.K.B.! < k 1.L.R.R.s.(.OX+X`.v.B.M.  j k k k F ] p Z p ] ] Z       ] p   ] Z   8 ~ ",
"    p p p Z p     p p     & X O I N.G.G.B.D.D.B.Q < k 8.L.R.W.R.s._.#XXXK.B.G.v.# M +.#.X.v # Z Z Z   Z   p p Z p Z p | |   8 ~ ",
"p     p Z Z p   p p         X . O I M.5.D K 5.b.I f 7.L.R.W.W.R.a.S.[.K.! G.v.% f 1.u.p.0.#.b F ]   Z p p p Z ]   Z | G.]   8 ~ ",
"  Z   p Z p                   X   % ;.e.w.t.f.5.C @.L.R.W./.^.W.U.x.S.C.5 Q x a 1.p.R.R.L.,., u Z   Z ] Z   Z Z   p | ] ] 8 8 8 ",
"  Z p   p Z   p   Z     p         $ q.w.-.4.j.f.2.0.R.W.W.W.W.W.W.U.k.l.=.O.V ,.p.R.W.R.p.O.- 1 p   Z ] Z Z ] ] p | | | | 8 ~ 8 ",
"    Z Z       Z     p p   p       , g.2.# $ -.L.I.U.W.W.R.L.p.L.W.W.R.U.U.p.p.L.U.R.Y.p.7.n - 1 p   | ] Z Z   p | G.G.| | 8 ~ 8 ",
"    Z     Z       p p   p Z w     , g.p.o.# * 2.T.W./.W.L.%...7.R./.W.W.W.W.R.U.p.q.2.=.n d p p Z   ] Z   p   p | | | G.| 8 ~ 8 ",
"          Z       p Z   Z Z w     * g.U.y.O.k 2.U.W./.W.U.7.X.7.R././././.W.U.y.+.k a $ X $ w Z       p Z Z   ] G.G.G.|   8 ~ | ",
"      p   Z Z Z   p     p Z     : $ ,.L.U.h.r.h.P.U.W.W.R.p.7.%.p.R.^././.^.R.L.8.,.B # o u &   ]   Z p p p p ] | | p Z Z ] 8 G.",
"      p p   Z Z     Z   p     & &   a ,.p.U.R.P.q.2.Y.W.W.R.L.7.7.L.R.W.W.W.W.R.L.0.+.& 0 ] p ] ] Z   Z       p p ]   Z ] ] ] | ",
"    w   p p       p Z Z         Z &   & o.0.y.8.k f r.U.R.W.R.L.0.7.y.u.w.w.w.w.2.+.d $ t   Z Z p Z Z   p   p Z ] ] Z | G.] ] 8 ",
"p p w     Z         Z Z p   p p     1 - & v v d # # ..0.p.I.R.R.U.9.#.o.k k * # # d X   ( Z p   Z     p Z Z p   ] ] | G.] G.G.8 ",
"  Z Z   Z p Z Z Z   p p p p       p &   # X X X     # n $.1.8.u.u.r.8.2.<.=.b # . $   & p       p p     Z     Z ] ] | G.| G.| p ",
"p p Z Z     Z p   Z Z p       p Z   p   & :         X * a k k m k k l k l k h : : : w p     Z           Z Z p p ] Z | ] G.| 8 p ",
"      Z p Z Z Z   Z       Z p     p p     1   X X * &.-.3.:.-.V f X +   - # 0 u     Z Z   p   Z p   p   p p Z p ] ] | G.| Z p 8 ",
"      Z   Z   Z       p Z   Z         w   & k M J 4.U.W.!.W.R.L.8.a - w ( w w w p Z   Z p           Z   Z     Z | Z p     Z   8 ",
"  Z                     p   p       w   , m g.Y.U.h.h.U.R.W.W.R.u.h - ] | |   Z   Z       p Z     Z p       p ] Z p Z Z p     8 ",
"  p     Z               p           & X a 8.R.R.0.B m 1.p.R./.W.u.l 0 p ] ] ] Z Z   p p     Z       Z Z p Z   ] Z Z       p Z p ",
"                          p w       - a @.h.U.8.b & n 9.U.W.W.W.P.H t ` &   Z p   Z   Z     p     Z   Z ] ] Z Z Z       | | p p ",
"                    Z             X a +.y.h.<.f X a 0.U.W./././.R.-.* 0 - &   p         p           Z ] ] ] Z   Z Z   | G.] | p ",
"    Z                         X a m ,.p.R.j.M X   k p.W././././.W.y.m       d d p       p p p Z p Z   p ] ] Z Z   p | G.] | p p ",
"]                           $ V r.h.R.W.W.R.t.k X f r.R.W./././.W.h.V     h O.V X             p p ] ]   Z ]   Z Z p | ] | Z Z p ",
"                      p   X &.h.R.W./././.W.R.2.a a 1.L.R.W././.W.L.V   $ =.h.y.m           p   p   ] Z Z   Z ] Z Z | |   Z | | ",
"                    p     X ,.T.W.W.W./.^.^.W.P.V X m 8.h.R.W.W.W.h.V X f O.t.y.O.d         p   p p Z ] Z Z Z Z     | Z   | G.] ",
"                    Z     X B y.L.p.R./.W.R.W.E.*.. < m =.u.R.R.P.<.h a $.=.&.2.8.f Z   p p   Z Z Z Z p Z p Z Z Z Z Z Z   G.] G.",
"                    Z       a +.7.7.U.W.U.p.W.Y.&.7 b.v.d.z.~.~.x.z   k u.h.J -.h.B j Z p p   Z   Z p Z p Z Z Z Z p Z Z | | G.G.",
"  Z     Z   Z   Z p   p   & $ d %.p.R.R.0.$.U.u.;.B. X{.'.'.[.[.A.x X a ,.2.V <.t.$ 1   Z Z           Z p   Z Z Z   p Z G.| G.| ",
"Z     p ] Z   ] ] p   p ]     a 1.p.U.0.b k q.>.F..X@X].G.b.N.G.W O # p a k B 2.<.$ 1 p     Z       p     p p   p Z p   | G.| p ",
"    Z Z ] Z   ] Z   ] ' ]   $ a #.7.1.b X o L A.|.*X%X|.`.B.v.U O   * & p f f k h   & p Z Z Z   Z   Z Z p Z Z ] Z ] p p |       ",
"p   ] ] ]     ]     | |   ( ^ # d b p X   O ! '.%X*X%X.X|.{.J.U .   : $ d f $   X : w p p Z p     p p   Z Z   Z Z ] Z Z ] p   8 ",
"    ] ] Z   p Z   p   ] p | w :           3 b.J.{.XX].G.D.`.{.G.3 X   = 6 P P P P 5 . 1 & w   p Z       p p Z p   ] ] Z | Z 8 8 ",
"p       p   ]   Z Z p       & i y O .     O P v.D.D.m.I P m.`.K.6 O 5 E D.K.K.K.J.b.3 / ' ( p     p   p ] | p p Z Z ] p Z ] 8 8 ",
"Z ] Z p p | |       Z   p   w t r ! U O   O 3 P P 6 2 2 Q D.J.B.P ! B.K. X+X+XXX{.D.5 # Z p p p Z p Z Z Z | |   p Z p   Z Z 8 8 ",
"Z Z | Z Z | p Z     Z p   p   y P G.J.Q 6 ! b.v.P .   2 N.'.K.! N.`. X+X*X*X&XXX'.B.4 q ] Z p Z p Z   ] p p ] p Z Z   Z p Z   8 ",
"] Z ] Z ] ] p ] | ] Z   p p &   P `. XG.m.`.K.B.U 2 3 E J. X].D.].@X*X*X*X&XXX'.D.! ; : | ]     p Z p ] p Z Z p       Z       ~ ",
"] ]   Z Z Z p p ] ] Z p ] ] &   P K.XX{.].XXJ.E O 6 v.K.XX&X&X%X&X&X*X*X&XXX'.D.! 6 o & p | Z Z p p p | | p p p     p         ~ ",
"Z Z Z Z Z Z | Z p p Z | ] | & q 6 D.|.%X%X+XK.P . U K. X&X*X*X*X*X*X%X@X XK.B.! 6 @ ) ( p Z Z Z p Z Z Z ] p | | p             ~ ",
"Z Z Z   Z ] ] Z   p Z ] Z Z ( i e } K.XX&X%X].E O P G.'.XX%X%X%X%X+X{.K.D.! P 2 .   ( | ] Z Z ] ] p p Z Z   p ]   Z     p   8 ~ ",
"Z Z Z Z Z |   Z ] ]   Z Z p | ( & r v.K.XX&XXXD.P 3 E m.J.].{.].`.G.m.U P ; o - / w Z   | Z Z Z | | p ] ] |   p Z | Z p Z   8 ~ ",
"Z Z Z     Z Z | | Z Z Z Z Z p w 1 @ 3 v.K.XX%X{.G.v.U 6 E v.m.v.Q 6 O o o 9 1 Z | | Z Z     Z Z p | ] ] | | ]   Z ]   Z     8 ~ ",
"Z Z   Z   Z   ] ] ] | ] ] Z Z Z   1 + 3 ! K.XX%X%X|.J.! P 2 o o o 9 q w   ` (   Z ]   Z   Z Z Z Z Z ] Z Z Z ] Z ] p   ] Z   8 ~ ",
"Z p p p p   Z p Z   Z   Z Z Z Z Z w _ - 3 ! K. X@X@XXX'.N.6 o         Z     p             | ]   Z   Z Z Z   Z Z p Z p | |   8 ~ ",
"p Z   Z p Z Z p Z Z       Z Z | w ] w 1 - 3 ! G.`.'.`.J.v.3               Z         p Z p Z |     ] | Z Z ] Z     Z | G.]   8 ~ ",
"      p Z p p     Z Z Z Z   ] Z w w p w _ 0 O P E ! Q P 2 .   w Z Z       p Z p       Z p       Z | ] Z Z | ] p   p | ] ] 8 8 8 ",
"p p   p     Z Z Z     Z Z Z Z Z w ] ] Z w _ 9 o X o X           Z         p p p     Z Z   Z Z Z   ] Z p ] | Z ] p | | | | 8 ~ 8 ",
"p p   Z Z         Z Z   p   p Z ] ] Z | Z w ( w w   w   w       Z Z   Z   p Z p     Z   Z Z | Z   Z ] p | Z ] ] | G.G.| | 8 ~ 8 "
};
