/* XPM */
static char *d0e009010b294d249cae196d0690daedOPgVQT37sUIqTM1V[] = {
/* columns rows colors chars-per-pixel */
"64 64 198 2 ",
"   c #000000",
".  c #01020B",
"X  c #020C0C",
"o  c #0B0B0C",
"O  c #03130D",
"+  c #011C0C",
"@  c #000314",
"#  c #000A14",
"$  c #0C0C13",
"%  c #00011D",
"&  c #010B1B",
"*  c #001513",
"=  c #0C1515",
"-  c #001917",
";  c #0D1C13",
":  c #00131A",
">  c #001E1B",
",  c #0C1A18",
"<  c #131414",
"1  c #141B1D",
"2  c #1B1B1B",
"3  c #201F1F",
"4  c #002400",
"5  c #00210F",
"6  c #032B0E",
"7  c #012C14",
"8  c #00221E",
"9  c #0B231B",
"0  c #15271B",
"q  c #1E231F",
"w  c #003217",
"e  c #013618",
"r  c #0B361C",
"t  c #003D1C",
"y  c #103C1D",
"u  c #000020",
"i  c #020C24",
"p  c #0E0E21",
"a  c #02052A",
"s  c #020C2A",
"d  c #021225",
"f  c #0A1324",
"g  c #021C25",
"h  c #02142B",
"j  c #0A172C",
"k  c #021A2C",
"l  c #191925",
"z  c #131F2D",
"x  c #1C1C2B",
"c  c #020731",
"v  c #030C33",
"b  c #030F3A",
"n  c #031434",
"m  c #041C34",
"M  c #04133D",
"N  c #041A3C",
"B  c #181D32",
"V  c #002420",
"C  c #0C2522",
"Z  c #1E2321",
"A  c #003F23",
"S  c #022435",
"D  c #06243D",
"F  c #0A243C",
"G  c #232424",
"H  c #222B2B",
"J  c #2B2B2B",
"K  c #28342D",
"L  c #26263B",
"P  c #2C3433",
"I  c #353535",
"U  c #393837",
"Y  c #31323A",
"T  c #353B3A",
"R  c #3B3B3B",
"E  c #004800",
"W  c #004816",
"Q  c #00441E",
"!  c #035019",
"~  c #005F1C",
"^  c #08581F",
"/  c #00621D",
"(  c #006B1F",
")  c #014620",
"_  c #004820",
"`  c #02402C",
"'  c #005E23",
"]  c #1F4F34",
"[  c #28403D",
"{  c #3F403F",
"}  c #006621",
"|  c #006C20",
" . c #246C39",
".. c #041643",
"X. c #051D45",
"o. c #0A1945",
"O. c #05144C",
"+. c #061A4C",
"@. c #061B54",
"#. c #081E59",
"$. c #052444",
"%. c #06254C",
"&. c #092C4A",
"*. c #142A43",
"=. c #162F4B",
"-. c #15354D",
";. c #072653",
":. c #092552",
">. c #072B50",
",. c #082C55",
"<. c #07235E",
"1. c #08255B",
"2. c #07285C",
"3. c #092D5C",
"4. c #083357",
"5. c #0A325C",
"6. c #163250",
"7. c #232E41",
"8. c #283846",
"9. c #273D54",
"0. c #082660",
"q. c #092B65",
"w. c #092C69",
"e. c #0A3361",
"r. c #0B3B65",
"t. c #0B336C",
"y. c #0C3B6B",
"u. c #0C3671",
"i. c #0D3B73",
"p. c #0E3F7A",
"a. c #2A414F",
"s. c #3E4244",
"d. c #384959",
"f. c #0D406A",
"g. c #16486E",
"h. c #0E4475",
"j. c #0F4A77",
"k. c #0F437D",
"l. c #0F4A7A",
"z. c #134273",
"x. c #104B7F",
"c. c #254877",
"v. c #384D75",
"b. c #3D587D",
"n. c #434343",
"m. c #464948",
"M. c #4B4B4B",
"N. c #4D5050",
"B. c #4C535C",
"V. c #535454",
"C. c #5B5B5B",
"Z. c #5C5C61",
"A. c #485C76",
"S. c #5F6060",
"D. c #58677F",
"F. c #636363",
"G. c #666A67",
"H. c #666A68",
"J. c #696C69",
"K. c #6D7972",
"L. c #747474",
"P. c #767879",
"I. c #7B7B7B",
"U. c #75817A",
"Y. c #0F4A81",
"T. c #104681",
"R. c #114A84",
"E. c #1C4F82",
"W. c #124E89",
"Q. c #155087",
"!. c #13528C",
"~. c #13588E",
"^. c #145691",
"/. c #145A95",
"(. c #155E99",
"). c #16619D",
"_. c #5F768A",
"`. c #6B7785",
"'. c #657C94",
"]. c #758799",
"[. c #758CA4",
"{. c #848484",
"}. c #86878B",
"|. c #8C8C8C",
" X c #858D93",
".X c #8E9095",
"XX c #939393",
"oX c #9C9C9C",
"OX c #989BA1",
"+X c #A5A5A5",
"@X c #ACACAC",
"#X c #B0AFAE",
"$X c #B0B0B0",
"%X c #B3B3B3",
"&X c #B9B9B9",
"*X c #BBBBBB",
"=X c gray75",
"-X c #C0C0C0",
/* pixels */
"      u V               u u         V     u V   u V V _ u u u _ u _ u V _ u u _ | u u V V   _ V _ u _ _ V u V V | | | J.| 4 E 4 ",
"V u u                       V     u   u u V   u V V u     u _ | V u V _ V _ V V | V V _ u u | _ V u | | V _ u u J.J.J.|   4 E | ",
"  V _   u u u       V   u       V     V     V   % o C B L [  .] 2 < w > % u _ V u u V V V V _ V _ u _ u V _   V | | u V V _ 4 J.",
"_ V _     | |   u   u V     u       V u   8 8 o x P n.Z.L.U.K.F.V.T 0 , > % 8 V u   V   _   V V | u V V   V _   u _   V _ _ _ | ",
"_ _   _ V V   | _   u V     u V u u 8     C 2 G N.I.oX+X@X%X@XoXI.F.V.s.H 9 - 8 % 8     V _ V V u V _ _ _ V V V _ _ V | J._ _ 4 ",
"_ | V V _ V u u   _ u _ V     _   V   9 < P V.I.oX%X=X=X=X=X=X&X@XoXoXXXI.V.K = * Q _ u   V | V V _   V u V V V _ _ | J._ J.J.4 ",
"V _ _ V u V V u V     u   u     V   p J n.S.XX%X=X=X=X-X=X%X@X=X=X=X=X=X%XXXF.R Z @ 8     u V _ V u   V V V     _ _ | J.| J.| u ",
"V V _   u         u u V _     _ ) o J M.L.XX%X-X-X-X-X-X&XoXXX@X=X-X-X-X-X%XoXL.n.o             u     V     u   _ V | _ J.| 4 u ",
"V   V V V u _ V u   V V _     Q ^ G m.L.oX%X=X-X-X-X-X-X%X{.J.XX%X-X-X-X-X-X&XoXJ.J o   %         u           u _ _ | J.| V u 4 ",
"V   V u V V | | _   _ _     | ( r G V.|.%X=X-X-X-X=X=X%XXXV.m.}.%X-X-X-X-X-X=X%XoXF.J o                         | V u     V   4 ",
"u   u   _ | u _ _           V 8   2 V.oX=X-X-X-X=X%XoXI.M.R F.+X=X-X-X-X-X-X-X=X%XXXV.2                         V u V V u     4 ",
"      u V _ _       u     _ V %   < M.|.%X=X-X-X%X}.V.R I V.|.&X-X-X-X-X-X-X-X-X=X@XL.J o   8     V       u   u V V   V u V   4 ",
"_ V   _ V V | _   |   V   u V     r I J.XX@X%X+XI.m.2 < I S.}.+X&X-X-X-X-X-X-X-X-X%X.XV.<         V           u       V       E ",
"| |   _ | V u u V V u     u V   Q ! 0 R F.L.L.F.I < o o 2 m.J.}.%X-X-X-X-X-X-X-X-X=X@XI.I o     V       u   u       u         E ",
"  | u V _ |   V V   _ V _ _   V _ % ! $ 2 G G 2 o 2 I G < I F.{.@X=X=X-X-X-X-X-X-X-X&X|.m.<   % V u       V     u             E ",
"V | _   u _       _ | V V V V _   V ~ 6 o J V.m.n.J.|.J.J 2 R C.|.oX@X=X-X-X-X-X-X-X&XXXF.I o - V             u   V     u   4 E ",
"  u u       V u V _ _ _ _ u _ V V V 8 7 . J V.M.V.I. X_.9.F *.7.M.J.XX@X=X-X-X-X-X-X&XXXJ.n.= - _ _ V V u V     V | V u V   4 E ",
"V u u u       _   _   _   u _ _ V   % / @ 1 K J n.L.`.b.z.i.u.:.B T C.}.@X%X&X-X-X-X&XoXL.n.= - u   V _ V u   u V _   V     4 E ",
"u V u   V   u       _   u _ Q V g ' A } ~ x m.I V.XXOX`.c.k.!.i.:.j G m.P.|.+X&X&X&X%XXXJ.R ; @ V u _ _ V       _ u   _ V   4 E ",
"    u u u V u     u u     u u @ S N a k W Y J.V.J.@X&XOXb.k.(.!.i.%.i 2 n.F.{.|.|.XX|.L.M.G o - V V   V   u u V u V u | |   4 E ",
"u     u V V u   u u         a N @.<.1.+.V 2 M.J.J.{.#X.Xv.k.).(.!.i.%.i G m.V.n.U m.C.N.G o   w _   V u u u V _   V | J._   4 E ",
"  V   u V u                 @ ..t.R.R.u.X.& 3 M.R m.}.D.c.W.).).(.!.i.+.j Y a.-.&.-.9.H o   5 t V   V _ V   V V   u | _ _ 4 4 4 ",
"  V u   u V   u   V     u   . n i.^.(.!.u.X.f z z 8.A.c.W.(.).).).(.!.t.o.=.g.j.r.r.5.j   X e 8 u   V _ V V _ _ u | | | | 4 E 4 ",
"    V V       V     u u   %   s q.T././.W.u.2.;.e.z.E.~.(.(././.(.).(.T.t.z.h.&.d D r.D   . > V u   | _ V V   u | J.J.| | 4 E 4 ",
"    V     V       u u   u 8 > % O.q.k.R.W.!.W.W.!.^./.).(.p.<.q.T./.)./.!.k.$.# @ %.h.D   . % u V   _ V   u   u | | | H.| 4 E 4 ",
"          V       u V   V V 8 . % s n N %.t.W.(.).).).).(.i.O.O.i./.).).^.t.d @ X.u.x.D X * 8 V       u V V   _ J.J.G.|   4 E | ",
"      u   V V V   u     u V     X . i n X.q.R.(.).).).).^.t.@.0.T.(.).(.^.i.%.%.i.W.h.m X Q %   _   V u u u u _ | | u V V _ 4 J.",
"      u u   V V     V   u     % @ . n 2.u.R./.).).).)./.k.0.0.k./.).(.R.h.Y.R.R.!.k.;.i 7 Q u _ _ V   V       u u _   8 _ _ _ | ",
"    V   u u       u V V         - @ c @.u.!.~.~.~./.!.p.0.q.k./.(.(.!.3.N y.W.R.t.X.& - t   V V u V V   u   u V _ _ 8 ( J._ _ 4 ",
"u u V     V         V V u   u u     & c M m m m m X.#.<.u.W././.!.R.t.v % M #.#.b &     _ V u   V     u V V u   _ _ ( G._ J.J.4 ",
"  V V   V u V V V   u u u u       % @ . @ . i N $.;.<.w.k.!.W.k.u.0.M @   @ % % @ *   % u       u u     V     V _ _ | J.| J.| u ",
"u u V V     V u   V V u       u V   %   . # i N %.%.%.%.>.>.%.M M s @       O - * > 8 u     V           V V u u _ V | _ J.| 4 u ",
"      V u V V V   V       V u     u %     * . @ : & & # & i h k k d & .     5 e     V V   u   V u   u   u u V u _ _ | J.| V u 4 ",
"      V   V   V       u V   V         V   % % %   % 7 . n ;.y.j.l.j.y.$.# . X * % 8   V u           V   V     V | V u     V   4 ",
"  V                     u   u       V   V u u V       - %.R./.).).)./.R.f.r.,.k   8       u V     V u       u _ V u V V u     4 ",
"  u     V               u           u     V   u     - # ,.!.).(.!.i.5.5.i.!.!.5.d   % u     V       V V u V   _ V V       u V u ",
"                          u V       V u     V V _ _   # 5./.).(.R.q.M i ..u.^.k.X.&   >     u     V   V _ _ V V V       | | u u ",
"                    V               V V     V % % t   d f.).).)./.k.2.s % M y.l.t.b @   %           V _ _ _ V   V V   | J._ | u ",
"    V                           u V u V   u V t @ . @ %.R.).).).)./.k.X.. . d r.R.t.M @ . @ % 8 u V   u _ _ V V   u | J._ | u u ",
"_                               u       _ a m >     & e.^.).).).).(.T.X.. . m h./.!.k.3.X.i . % u _ _   V _   V V u | _ | V V u ",
"                      u         _   u ) ` >.e.%.&   d y./.).).).).^.i.M @ h y./.).).(.!.T.e.N X %   _ V V   V _ V V | |   V | | ",
"                    u           _   u ) i q.k.5.s . d y./.).).).^.k.2.s & ;.!.).).).).).(.!.e.: @ % V _ V V V V     | V   | J._ ",
"                    V           V     . $.q.e.$.n i & 5.!.(./.!.i.;.h . d h.).).(.).)./.^.!.e.d * 8 V u V u V V V V V V   J._ J.",
"                    V       V V u     d e.r.$.4.y.N @ k r.Q.Q.z.F f 1 < g j.).^.!.(./.i.t.t...#   8 u V u V V V V u V V | | J.J.",
"  V     V   V   V u   u   u V       % & ,.r.S 5.i.N . = d.'.[.].P.L.P.M.C y./.k.u./.(.p.<...%         V u   V V V   u V J.| J.| ",
"V     u _ V   _ _ u   u _       V V >   D y.$.N N s @ $ R I.}.J.L.|.@XXXB.6.y.3...u.^.W.q.b @       u     u u   u V u   | J.| u ",
"    V V _ V   _ V   _ | _   V u V | 8   d %.N s i % % . 2 n.M.n.C.|.@X&XXXB.=.n @ M t.p.q.b @   V   V V u V V _ V _ u u |       ",
"u   _ _ _     _     | |   _ |   _ V %   @ # & s c % . *   < n.L.XX@X%X-X&X.Xs.X   @ b +.O.a @     u u   V V   V V _ V V _ u   4 ",
"    _ _ V   u V   u   _ u | V V       *       @ @ .     o I I.oXXXXX+X&X%XXXC.3     . @ @ #   % V       u u V u   _ _ V | V 4 4 ",
"u       u   _   V V u       u _ |   7 G R m.m.m.R 2     o V.XXL.m.m.J.|.XXL.m.2         + w %     u   u _ | u u V V _ u V _ 4 4 ",
"V _ V u u | |       V   u   V _ _   = R I.XXXXXX|.F.I l < M.}.F.I 2 G n.m.I 2 o     o 2 1 @ % u V u V V V | |   u V u   V V 4 4 ",
"V V | V V | u V     V u   u   | u   o m.|.@X&X&X%X+X{.F.R R F.I.V.2 o o < G G 2 o o I V.I O % V u V   _ u u _ u V V   V u V   4 ",
"_ V _ V _ _ u _ | _ V   u u u       $ I J.XX%X=X-X=X%X+XI.M.F.XXJ.J o o G M.F.F.R I I.}.{ +     u V u _ u V V u       V       E ",
"_ _   V V V u u _ _ V u _ _ u         2 m.L.XX%X=X-X-X=X%XoXoX%XoXF.J < < I J.XX{.J.oXXXn.6 > V u u u | | u u u     u         E ",
"V V V V V V | V u u V | _ | u _ u % 7 O G m.L.XX%X-X-X=X=X=X=X=X&XoXL.I o 2 C.oX@X+X@X|.R X > V u V V V _ u | | u             E ",
"V V V   V _ _ V   u V _ V V _ _ V ( / 7 o 2 R C.{.+X%X=X-X-X-X-X=X@X|.m.o < F.@X=X&X+XJ.K * 8 _ _ u u V V   u _   V     u   4 E ",
"V V V V V |   V _ _   V V u | _ u | Q Q @ X ; q R C.L.XX+X@X%X%X+X{.C.J o J {.=X=X+XL.R y 8 8 V | | u _ _ |   u V | V u V   4 E ",
"V V V     V V | | V V V V V u V V _       > W X o 0 Z R C.L.I.I.F.n.G 2 G F.+X=X@XL.R <     V V u | _ _ | | _   V _   V     4 E ",
"V V   V   V   _ _ _ | _ _ V V V   V V     u   > @ @ * o < q G G 2 < I F.}.+X%X@XL.R < O   8 V V V V _ V V V _ V _ u   _ V   4 E ",
"V u u u u   V u V   V   V V V V V V | V   V                 X o J C.}.@X=X=X+XL.R <       | _   V   V V V   V V u V u | |   4 E ",
"u V   V u V V u V V       V V | V _ V V V V   V V   % 8       o n.I.oX@X@XoXL.R <   % 8 u V |     _ | V V _ V     V | J._   4 E ",
"      u V u u     V V V V   _ V V V u V | _   V   V V         X Z m.F.J.F.V.I <       V u       V | _ V V | _ u   u | _ _ 4 4 4 ",
"u u   u     V V V     V V V V V V _ _ V V | _ V u V u           X o < 2 2 < o @     V V   V V V   _ V u _ | V _ u | | | | 4 E 4 ",
"u u   V V         V V   u   u V _ _ V | V V _ V V   V   V       - *   -   @ - %     V   V V | V   V _ u | V _ _ | J.J.| | 4 E 4 "
};
