/* XPM */
static char *result[] = {
/* columns rows colors chars-per-pixel */
"64 64 177 2 ",
"   c #000000",
".  c #010B06",
"X  c #080807",
"o  c #01040C",
"O  c #010C0C",
"+  c #0C0C0C",
"@  c #100E0C",
"#  c #02120D",
"$  c #10100F",
"%  c #010213",
"&  c #010A14",
"*  c #0A0C13",
"=  c #00011C",
"-  c #000C1B",
";  c #0E0E1D",
":  c #100F14",
">  c #011412",
",  c #0D1413",
"<  c #001917",
"1  c #0A1A11",
"2  c #01131A",
"3  c #0B121C",
"4  c #011C1A",
"5  c #0B1B1A",
"6  c #131313",
"7  c #14151A",
"8  c #151C1A",
"9  c #1B1B1C",
"0  c #002400",
"q  c #002512",
"w  c #00221E",
"e  c #18201F",
"r  c #003415",
"t  c #013518",
"y  c #013B1B",
"u  c #000020",
"i  c #010B23",
"p  c #0D0D24",
"a  c #00032C",
"s  c #000D2C",
"d  c #011324",
"f  c #001B21",
"g  c #00122B",
"h  c #01192E",
"j  c #0D182F",
"k  c #121121",
"l  c #111925",
"z  c #1D1E23",
"x  c #10102E",
"c  c #181A2D",
"v  c #000433",
"b  c #000B35",
"n  c #010C3C",
"m  c #001332",
"M  c #001B36",
"N  c #00143A",
"B  c #001C3B",
"V  c #0E1F3D",
"C  c #002420",
"Z  c #1F2424",
"A  c #15212F",
"S  c #182029",
"D  c #103520",
"F  c #00203D",
"G  c #0A223B",
"H  c #232324",
"J  c #222727",
"K  c #292827",
"L  c #242D2A",
"P  c #2B2B2B",
"I  c #302F2F",
"U  c #32312F",
"Y  c #202037",
"T  c #2C2E32",
"R  c #203A37",
"E  c #2D3338",
"W  c #333333",
"Q  c #363739",
"!  c #3B3B3B",
"~  c #004800",
"^  c #004715",
"/  c #004916",
"(  c #00451E",
")  c #015F1C",
"_  c #00671E",
"`  c #00691F",
"'  c #004820",
"]  c #194E30",
"[  c #364039",
"{  c #006C20",
"}  c #41403F",
"|  c #000C46",
" . c #001345",
".. c #001A42",
"X. c #00124C",
"o. c #011C4C",
"O. c #001C54",
"+. c #021C59",
"@. c #002445",
"#. c #00234B",
"$. c #002A49",
"%. c #002354",
"&. c #0B2752",
"*. c #002B52",
"=. c #00255B",
"-. c #002A5D",
";. c #1D2D56",
":. c #003153",
">. c #00325B",
",. c #2F2F4C",
"<. c #3E3F45",
"1. c #293855",
"2. c #012563",
"3. c #002C63",
"4. c #022D6B",
"5. c #003364",
"6. c #043D66",
"7. c #00336C",
"8. c #003B6D",
"9. c #002F71",
"0. c #003473",
"q. c #003A73",
"w. c #003778",
"e. c #013C7A",
"r. c #223B65",
"t. c #37465D",
"y. c #004376",
"u. c #01437C",
"i. c #00497E",
"p. c #1E527E",
"a. c #274A69",
"s. c #3A4A6C",
"d. c #434343",
"f. c #4B4B4A",
"g. c #4E5054",
"h. c #555554",
"j. c #5C5C5C",
"k. c #4D5566",
"l. c #575A63",
"z. c #435E71",
"x. c #4C5C7D",
"c. c #636363",
"v. c #676B67",
"b. c #696867",
"n. c #696C69",
"m. c #616173",
"M. c #747474",
"N. c #777878",
"B. c #7B7B7B",
"V. c #80807F",
"C. c #003F81",
"Z. c #004483",
"A. c #004A83",
"S. c #004789",
"D. c #004B8B",
"F. c #005187",
"G. c #00528B",
"H. c #005494",
"J. c #005896",
"K. c #095C95",
"L. c #005799",
"P. c #005C9D",
"I. c #0061A2",
"U. c #797B80",
"Y. c #838383",
"T. c #888887",
"R. c #8B8B8B",
"E. c #848495",
"W. c gray58",
"Q. c #9C9C9C",
"!. c #A4A4A4",
"~. c #A8A7A7",
"^. c #ACACAC",
"/. c #B4B4B4",
"(. c #BDBDBD",
"). c #C0BFBF",
"_. c #C0C0C0",
/* pixels */
"      u C               u u         C     u C   u C C ' u u u ' u ' u C ' u u ' { u u C C   ' C ' u ' ' C u C C { { { v.{ 0 ~ 0 ",
"C u u                       C     u   u u C   u C C u     u ' { C u C ' C ' C C { C C ' u u { ' C u { { C ' u u v.v.v.{   0 ~ { ",
"  C '   u u u       C   u       C     C     C   u   C u u w { '     ' C u u ' C u u C C C C ' C ' u ' u C '   C { { u C C ' 0 v.",
"' C '     { {   u   u C     u       C u   C C   u C   u u ' ' u C ' { C C u C C u   C   '   C C { u C w   C '   u '   C ' ' ' { ",
"' '   ' C C   { '   u C     u C u u C     C     C C u C   ' C C C { C C ' ( C C u C     C ' C C u C ' ' ' C C C ' ' C { v.' ' 0 ",
"' { C C ' C u u   ' u ' C     '   C   C   C   u C u u C   u u u C C u ' ' C ' C C ' ' u   C { C C '   C u C C C ' ' { n.' v.n.0 ",
"C ' ' C u C C u C     u   u     C   u u   C C C ' u C C   C C C ' C C ' C C ' u C u C     u C ' C u   C C C     ' ' { n.{ n.{ u ",
"C C '   u         u u C '     ' '       C ' C   C C w   u u   u u C u C u ' ' u u               u     C     u   ' C { ' n.{ 0 u ",
"C   C C C u ' C u   C C '     ' {       ' C   u C f u C C       u   =   u ' C u         u         u           u ' ' { n.{ C u 0 ",
"C   C u C C { { '   ' '     { { '             = y { ] R R Y z c p = =   u C                                     { C u     C   0 ",
"u   u   ' { u ' '           C C   u C   = = t 1 H } c.N.B.B.M.l.! 9 + 4 w =       u   u                         C u C C u     0 ",
"      u C ' '       u     ' C u   C C =   + H <.j.Y.~.^.^.^.^.Q.B.h.<.z X > w u C           C     C       u   u C C   C u C   0 ",
"' C   ' C C { '   {   C   u C     ` X 7 P Q j.T.Q.^._._._.)._.(.^.Q.Y.h.Q H e   C   u             C           u       C       ~ ",
"{ {   ' { C u u C C u     u C   ( ) D U h.B.Q./.).)._._._._._._._.(./.W.B.j.T p w   C u   u     C       u   u       u         ~ ",
"  { u C ' {   C C   ' C ' '   C ( % J h.N.Q.(.)._._._._._.)._._._.).(.(./.W.j.P ;   C         u C u       C     u             ~ ",
"C { '   u '       ' { C C C C '   5 Q M.!./._._._._.)._._.)._.)._._._._.).!.j.H % u   C u     C C             u   C     u   0 ~ ",
"  u u       C u C ' ' ' ' u ' w 5 L j.W./._._.(././.)._._._.).)._._._._.^.Y.d.7   u   C C u C C ' ' C C u C     C { C u C   0 ~ ",
"C u u u       '   '   '   u ' t , Q Y./._._._./.R.W.^./.)._.).)._._._.^.V.d.z X   u   4     4 w =   C ' C u   u C '   C     0 ~ ",
"u C u   C   u       '   u ' ' < 1 f.W./._._._.~.c.f.M.R.^.).).).).).^.B.d.Z X     < O     # X   > = ( ( C       ' u   ' C   0 ~ ",
"    u u u C u     u u     = = + ! N.^.(._._._./.M.! z T } g.c.V.T.T.N.f.9 X   # % O X K [ f.d.! Z #   4   u u C u C u { {   0 ~ ",
"u     u C C u   u u         o 9 h.Q.(._._._._./.!.M.} P 7 @ 7 I ! Q W 9 * = = o O X K h.V.W.W.T.j.W Z ; % = C '   C { v.'   0 ~ ",
"  C   u C u                   z n.~.(._._._._._./.^.W.b.Q 7 : 7 9 7 @ X u X.o.i   9 h.M.Q.(.(.(.!.B.j.P >   C C   u { ' ' 0 0 0 ",
"  C u   u C   u   C     u     K R.(._._._._._./.Q.b.! z x ,.n.W.Q.T.h.z B 0.0.%.i z h.N.Q.(._._.(.~.B.d.8 w ( ' u { { { { 0 ~ 0 ",
"    C C       C     u u   % 6 g.Q._._._._._./.Q.c.P 9 } m.E.^._._.R.<.V 7.G.S.4.b , ! c.W.(._._._.(.!.n.E 5   u { v.v.{ { 0 ~ 0 ",
"    C     C       u u   = > P M.^._._._.)./.Q.c.P X H b.Q././.Q.!.M.c #.A.P.L.7.m X 7 } Y.(._._._._./.R.d.*   u { { { v.{ 0 ~ 0 ",
"          C       u C   4 # W V./._._._.(.Q.c.P + o 9 g.N.Q.T.f.M.n.S -.H.P.H.4.m   X z b.^._.)._._.(.Q.h.8   ' v.v.v.{   0 ~ { ",
"      u   C C C   u     = > W Y./._._._./.N.I * s n n ;.k.N.b.I f.h.A 6.P.L.C.+.u     9 h.W.(._._._._./.R.d.7 q { { u C C ' 0 v.",
"      u u   C C     C   = X W Y./._._._.Q.h.7 m =.9.9.4.r.k.j.d.t.a.y.F.P.S.3.b s g o @ ! N.Q./._._._._.~.c.9 % = '   C ' ' ' { ",
"    C   u u       u C C   X W Y./._.(.~.V.! d =.C.H.J.S.e.a.z.z.p.G.P.J.e.-.o.N *.5.i o K h.B.!.(._._.(.^.n.H > ' ' C { v.' ' 0 ",
"u u C     C         C C =   W V.^.(.!.Y.c.P M q.H.P.P.P.J.H.K.K.P.P.P.Z.@.s o.e.J.A.%.- + T c.W.(._._._.~.b.H   ' ' { v.' n.v.0 ",
"  C C   C u C C C   u u = o P b.R.T.N.j.I j -.D.P.I.P.Z.*.h F 5.C.J.P.P.A.y.S.L.J.C.=.- X * Q M.!.(._.(.~.M.H # ' ' { n.{ n.{ u ",
"u u C C     C u   C C u   X K j.n.k.s.1.V %.e.P.I.P.Z.*.M F $.7.-.@.>.u.D.P.P.L.Z.3.N =     6 ! M.!.(._.^.n.H % ( C { ' v.{ 0 u ",
"      C u C C C   C       < z f.k.r.2.+.o.=.8.i.i.y.*.M -.G.P.H.:.d h *.7.q.i.8.=.N - >   X 6 9 d.Y.~.(.!.b.J o ( ' { v.{ C u 0 ",
"      C   C   C       u w   < 3 &.u.q.| = & * 2 2 & h 5.G.P.I.P.J.G.H.A.*.- & & O &   # * P ! K P j.T.!.Q.j.9 # _ C u     C   0 ",
"  C                     u   % 2 5.S.5.i : K } f.f.d.E G 8.J.I.I.I.I.I.P.u.#.m %       + P f.j.P + K d.c.v.W + q 4 u C C u     0 ",
"  u     C               u     g y.Z...* K h.N.W.Q.W.n.! V 3.Z.D.J.H.J.S.7.#.m o X X X K j.Y.M.Q     , K P 7 X r C C       u C u ",
"                          u > d 5.2.u 7 f.M.Q./.(.(.^.V.Q p | 3.w.w.0.%.g X * 9 K 9 7 d.R.!.M.P       . . # 4 w C       { { u u ",
"                    C         & b s * P c.Q./.(.).).).~.M.T o - n | n u 6 P h.Y.T.f.P M./.W.W X     4 y y y w   C C   { v.' { u ",
"    C                           u & + Q Y./.(._._.)._.(.!.M.f.I k % % 7 P c.W.(./.M.d.V._.W.P O = w   = ( ( C C   u { v.' { u u ",
"'                               =   X Q T.(._.)._._._.).).^.W.N.d.6 + P h.R./._.(.Q.M.Q._.Q.f.: o ( (   C '   C C u { ' { C C u ",
"                      u         y   + P c.Q.(._._._._._._.(.(./.Y.Q 9 ! c.T./._._.(.(.(.(.!.c.H o   ' C C   C ' C C { {   C { { ",
"                    u           '   % 6 I c.Q./._._._._._._._.(.W.f.6 + K f.N.~._._._.(.~.T.j.H % = C ' C C C C     { C   { v.' ",
"                    C           C       , T c.T.!.^._._._._._.(.^.M.I 6 ! B.W./._.~.U.U.x.s.1.l O w C u C u C C C C C C   n.' v.",
"                    C       C C u         + K d.j.T.~./.(._._._.).Q.j.P j./.(.(./.U.E X.4.4.+.i   w u C u C C C C u C C { { v.v.",
"  C     C   C   C u   u   u C       u     % X X z d.c.Y.!././.(.(.Q.c.K d.W.(.(.!.j.S %.D.S.3.i       C u   C C C   u C v.{ v.{ ",
"C     u ' C   ' ' u   u '       C C C     =   > X @ H W f.j.B.V.B.c.W 6 z c./._.W.f.l *.S.Z.=.i     u     u u   u C u   { n.{ u ",
"    C C ' C   ' C   ' { '   C u C { C               # + + 9 U ! ! W $ X P b.W.W.n.W * h ..@.m % <   C C u C C ' C ' u u {       ",
"u   ' ' '     '     { {   ' {   ' C u   u     =       & & - 3 7 9 +   $ d.M.N.j.! 9         o     u u   C C   C C ' C C ' u   0 ",
"    ' ' C   u C   u   ' u { C C       C   u   u u   % b =.0.*.-     X 9 d.j.h.Q H 7 X     O   = w       u u C =   ' ' C { C 0 0 ",
"u       u   '   C C u       u ' {   ' C           = v +.e.S.=.- O % % + 7 9 9 , X o > / ^ t =     u   u ' { u u C C ' u C ' 0 0 ",
"C ' C u u { {       C   u   C ' (   C     C C   u a X.0.A.7.m & 4 u 4 % o O # O   > w = w = u u C u C C C { {   u C u   C C 0 0 ",
"C C { C C { u C     C u   u   { = o % o o C C C u m +.S.S.#.& < C C C w = =   w (   u ' ' C u C u C   ' u u ' u C C   C u C   0 ",
"' C ' C ' ' u ' { ' C   u u u   o s O.+.O.s C   C ..7.S.w.N % 4 u ' C u ' C   C ' u w C { '     u C u ' u C C u       C       ~ ",
"' '   C C C u u ' ' C u ' ' u   o b 2.e.Z.6...a < M 0.D.q.X.a f u C C   ' ' ' C C ' C u u { C C u u u { { u u u     u         ~ ",
"C C C C C C { C u u C { ' { u ' = u o.Z.H.Z.0.O.b N 0.S.3.b g f u ' '     { '   C ' { ' u C C C u C C C ' u { { u             ~ ",
"C C C   C ' ' C   u C ' C C ' ' w r d %.0.S.J.S.3.2.S.G.$.O # > u ' f C u C ' C     ' { ' C C ' ( u u C C   u '   C     u   0 ~ ",
"C C C C C {   C ' '   C C u { ' u ) q d o.4.0.Z.D.H.P.P.F.$.O o a N b % C C C C { C C   { C C C { { u ' ' {   u C { C u C   0 ~ ",
"C C C     C C { { C C C C C u C C '   o = i s M @.$.$.:.y.i.5.>.-. .i 4 C ' C C { { C C     C C u { ' ' { { '   C '   C     0 ~ ",
"C C   C   C   ' ' ' { ' ' C C C   C >   & i d -       & M 8.D.L.S.*.> <   { '   C '   C   C C C C C ' C C C ' C ' u   ' C   0 ~ ",
"C u u u u   C u C   C   C C C C C C / - N 3.3...-       o g =.0.q.@.& <     u             { '   C   C C C   C C u C u { {   0 ~ ",
"u C   C u C C u C C       C C { C ( w < - - - - 2   = 4   o & - - &       C         u C u C {     ' { C C ' C     C { v.'   0 ~ ",
"      u C u u     C C C C   ' C C C = w / q   >   C w         > > <       u C u       C u       C { ' C C { ' u   u { ' ' 0 0 0 ",
"u u   u     C C C     C C C C C C ' ' w w ` ( C u C =           C         u u u     C C   C C C   ' C u ' { C ' u { { { { 0 ~ 0 ",
"u u   C C         C C   u   u C ' ' C { C w ' C C   C   C       C C   C   u C u     C   C C { C   C ' u { C ' ' { v.v.{ { 0 ~ 0 "
};
