/* XPM */
static char *result[] = {
/* columns rows colors chars-per-pixel */
"64 64 177 2 ",
"   c #000000",
".  c #080707",
"X  c #01040B",
"o  c #040D0C",
"O  c #0B0C0C",
"+  c #05140B",
"@  c #021A0D",
"#  c #010213",
"$  c #000A13",
"%  c #0B0B14",
"&  c #00011D",
"*  c #000C1B",
"=  c #0B0C1B",
"-  c #021513",
";  c #0D1111",
":  c #001816",
">  c #0C1C12",
",  c #06111C",
"<  c #0B131C",
"1  c #011D1B",
"2  c #0B1D1B",
"3  c #141414",
"4  c #121A15",
"5  c #161719",
"6  c #151A1A",
"7  c #1C1C1C",
"8  c #201F1F",
"9  c #002400",
"0  c #00220F",
"q  c #022612",
"w  c #032A14",
"e  c #00221E",
"r  c #1A221C",
"t  c #013215",
"y  c #013B12",
"u  c #09361C",
"i  c #023E1C",
"p  c #000020",
"a  c #000B22",
"s  c #00032D",
"d  c #000D2C",
"f  c #011225",
"g  c #081623",
"h  c #001D26",
"j  c #00142C",
"k  c #031B2C",
"l  c #0C1A2C",
"z  c #141722",
"x  c #181D2C",
"c  c #000534",
"v  c #000C32",
"b  c #00063C",
"n  c #000D3C",
"m  c #001435",
"M  c #001933",
"N  c #0D1C31",
"B  c #00143D",
"V  c #001B39",
"C  c #002420",
"Z  c #00242B",
"A  c #1D2122",
"S  c #1D2920",
"D  c #0B3C21",
"F  c #002137",
"G  c #0E2630",
"H  c #00223D",
"J  c #10283E",
"K  c #232323",
"L  c #242C27",
"P  c #212428",
"I  c #222C2B",
"U  c #2B2B2B",
"Y  c #2D2E32",
"T  c #2F3131",
"R  c #343434",
"E  c #383737",
"W  c #343837",
"Q  c #36373C",
"!  c #3C3C3C",
"~  c #413E3D",
"^  c #004800",
"/  c #024215",
"(  c #004C16",
")  c #00431E",
"_  c #0D441D",
"`  c #05521B",
"'  c #00631D",
"]  c #00691F",
"[  c #004820",
"{  c #00422B",
"}  c #095820",
"|  c #006C20",
" . c #41403E",
".. c #000A42",
"X. c #000C4C",
"o. c #001443",
"O. c #001B43",
"+. c #00134D",
"@. c #001C4B",
"#. c #001653",
"$. c #001C53",
"%. c #001B5B",
"&. c #002343",
"*. c #002A46",
"=. c #00244B",
"-. c #002B4D",
";. c #152543",
":. c #002454",
">. c #002A56",
",. c #0A2C51",
"<. c #00225B",
"1. c #002C5C",
"2. c #003357",
"3. c #003058",
"4. c #253346",
"5. c #001F60",
"6. c #002564",
"7. c #002D64",
"8. c #002C6B",
"9. c #003363",
"0. c #003866",
"q. c #00336C",
"w. c #083369",
"e. c #013A6C",
"r. c #083F6E",
"t. c #10386D",
"y. c #002F71",
"u. c #003473",
"i. c #003B75",
"p. c #003C7B",
"a. c #213B67",
"s. c #2E4151",
"d. c #024175",
"f. c #00447C",
"g. c #084278",
"h. c #1C487A",
"j. c #344562",
"k. c #3D5978",
"l. c #434343",
"z. c #464749",
"x. c #4A4A4A",
"c. c #504F4E",
"v. c #535353",
"b. c #5C5C5C",
"n. c #505D6E",
"m. c #52617B",
"M. c #646464",
"N. c #696C69",
"B. c #646B78",
"V. c #747474",
"C. c #737478",
"Z. c #7D7D7D",
"A. c #004584",
"S. c #004B85",
"D. c #004688",
"F. c #004B8B",
"G. c #005087",
"H. c #00528D",
"J. c #004F90",
"K. c #005494",
"L. c #005997",
"P. c #005798",
"I. c #005C9C",
"U. c #005FA0",
"Y. c #0060A0",
"T. c #787B80",
"R. c #838383",
"E. c #888887",
"W. c #8B8B8B",
"Q. c #949494",
"!. c #939599",
"~. c #9C9C9C",
"^. c #A3A3A3",
"/. c #ABABAB",
"(. c #B4B4B4",
"). c #BDBDBD",
"_. c #C0C0C0",
/* pixels */
"      p C               p p         C     p C   p C C [ p p & ) p ) p C ) p & [ ] & p C C   [ C [ p [ [ C p C C | | ] N.] 9 ^ 9 ",
"C p p                       C     p   p p C   p C C p     & ) ( : # : t e D 2 2 ( 1 e [ p p | [ C p | | C [ p & N.N.N.|   9 ^ | ",
"  C [   p p p       C   p       C     C     C   p   C & & 1 y + O ; 5 6 P U L 5 ; = e 1 e C [ C [ p [ p C [   C | | p C C [ 9 N.",
"[ C [     | |   p   p C     p       C p   C C   p e   & # @ > K ! v.b.b.M.M.M.b.x.R A . w   C C | p C e   C [   p [   C [ [ [ ] ",
"[ [   [ C C   | [   p C     p C p p C     C     C e # ; O K E v.R.~.~.^.^.^.~.^.Q.V.l.7 - u C C p C [ [ [ C C C [ [ e ] N.[ [ 9 ",
"[ | C C [ C & p   [ & [ C     [   C   C   C   p e a 3 8 E b.Z.Q./._._.).).).)._.)./.R.v.U 6 } C C [   C p C C C [ [ | N.` N.N.9 ",
"C [ [ C p C C p C     p   p     C   p p   C e e i z 4.M.Z.~.(.)._._._._._._._._._._.(.^.Z.x.I u e p   C C C     [ [ | N.| N.| p ",
"C C [   p         p p C [     [ [       C [ e   4 W V.^./.)._._._._._._._._._._._._._._./.E.v.3 #     C     p   [ C | [ N.| 9 p ",
"C   C C C p [ C p   C C [     [ |       [ e   = U M.^.)._.)._._._._._._._._._._._._._._._.^.M.7   p           p [ [ | N.] C p 9 ",
"C   C p C C | | [   [ [     | | [           . 7 b.^.)._._._._._._.(././.(.(._._._._._.).(.W.x.3                 | C p     C   9 ",
"p   p   [ | p [ [           C C   p C   & X ; R V./._._._._._._.).~.V.N.C.~.(.(.)._._.(.Q.M.K O                 C p C C p     9 ",
"      p C [ [       p     [ C p   C C &   . K b.~.)._._._._._._.)./.C.R ~ M.E.~.(.).(.E.b.U ;     C       p   p C C   C p C   9 ",
"[ C   [ C C | [   |   C   p C     |   & w ; E Z.(._._._._._._._._.).Q.R 3 U x.b.R.~.R.z.8 O       C           p       C       ^ ",
"| |   [ | C p & C C p     p C   [ | )   + 8 v.Q.(._._._._._.).).(.^.R.z.3 O 8 K ~ c.~ 3   X     C       p   p       p         ^ ",
"  | p C [ |   C C   [ C [ [   C [ p ] # O ! Z.(.)._._._._._.).).~.N.z.K 3 3 3 5 8 K 8 3 O .   & C p       C     p             ^ ",
"C | [   p [       [ | C C C C [   C ] ` 8 v.~._._._._._._._.).)./.E.V.N.N.N.N.M.M.M.b.x.E K . 1 C             p   C     p   9 ^ ",
"  p p       C p C [ [ [ [ p [ C C e 1 u ! Z./.)._._._._._._.).)._._.)./.Q.R.Z.R.R.Z.V.b.x.Y o : [ [ C C & C     C | C p C   9 ^ ",
"C p p p       [   [   [   p [ [ C   # r b.~.)._._._._._._._.).(.(./.Q.N.! 7 3 3 7 K 7 3 5 3 o 1 p X Z { Z p   p C [   C     9 ^ ",
"p C p   C   p       [   p [ [ C C ' q K V./._._._._._._._.)./.Q.R.N.! P ; X   ; ! v.! K 3 > t & j ..:.-.H       [ p   [ C   9 ^ ",
"    p & p C p     p p     p p   | )   K C./._._._._._._.)./.R.c.! K < V O.m d P N.^.R.v.E U . $ m %.8.q.:.n p C p C p | |   9 ^ ",
"p     p C e p   p p         p [ ) & - K V./._._._.)._.)./.W.v.7 . $ H f.F.p.7.4.T.(.^.b.x.E . * O.u.A.A.p.$.Z [   C ] N.[   9 ^ ",
"  C   p C p                   p p   # K V./.)._.).).)./.W.V.4.O # &.f.I.I.L.F.t.m.!.Q.E ; O * @.u.F.I.I.D.>.Z C   p | [ [ 9 9 9 ",
"  C p   p C   p   C     p             7 b.E.^.).).)./.W.N. .7 X m u.P.U.Y.Y.I.F.h.m.T.x.5 # @.q.F.I.Y.I.A.>.{ [ p | ] | | 9 ^ 9 ",
"    C C       C     p p   p         # 3 ~ M.R.^.^.~.V. .R K O $ >.F.Y.U.Y.Y.Y.I.F.h.k.j.;.O.u.F.P.I.I.K.q.o.X p ] N.N.| | 9 ^ 9 ",
"    C     C       p p   p C C     e X . 7 s.M.C.B.n.s.l k f * j q.K.Y.Y.U.Y.Y.Y.U.K.A.u.u.i.F.P.I.K.F.u.#.c   p | | | N.| 9 ^ 9 ",
"          C       p C   C C C     &     . 7 ~ v.a.t.g.f.f.i.9.7.F.Y.Y.U.I.I.I.Y.Y.I.I.K.P.K.P.K.S.u.<.o.m Z   [ N.N.N.|   9 ^ | ",
"      p   C C C   p     p C     C e   X   O 7 4.w.y.8.8.u.F.D.A.K.Y.U.I.F.S.K.I.Y.Y.Y.Y.Y.I.F.p.:.j a & & & p [ | | p C C [ 9 N.",
"      p p   C C     C   p     & &   * M m a % N i.p.%.b B q.J.K.I.U.I.G.9.<.q.F.I.Y.Y.Y.U.P.F.i.:.j * X       p & [   C [ [ ` | ",
"    C   p p       p C 1 X * $   : # H f.p.$.p j f.J.8.o.d @.A.K.I.I.I.f.&.d o.u.J.I.I.I.Y.I.I.K.A.7.O.# #   & C [ [ C ] N.[ [ 9 ",
"p p C     C         e : * 2.-.#   X -.L.K.8.v * q.J.F.u.$.#.8.K.F.F.I.L.S.-.m <.u.f.f.H.I.I.I.F.q.O.* # e e p   [ [ | N.[ N.N.9 ",
"  e C   C p C e C   & # , 0.d.=.d # -.U.I.u.v * @.p.F.F.p.5.6.A.p.p.K.I.U.S.>.+.B M V -.e.F.A.8.O.a     C     C [ [ | N.| N.| p ",
"p p C C     C p   C e # $ 1.D.A.<.v =.F.F.q.m * +.:.9.p.u.6.%.%.@.$.u.A.K.K.A.<.m k j M >.q.=.B *       C C p p [ C | ) N.| 9 p ",
"      C p C C C   e   X f @.7.A.A.6.#.6.u.6.v a 9.-.V %.6.%.X...p p ..$.9.q.q.9.1.3.9.9.:.B X X #   p   p p C p [ [ | N.] C p 9 ",
"      C   C   C     X B 2.m v <.p.A.6.#.6.#.p j f.F.d.D.F.A.6.$.n p # * f f f f f a a f d X         C   C     C ] C p     C   9 ",
"  C                 X M u.O.p a &.q.u.8.q.B & B d.K.P.U.U.P.A.y.#.a * *.=.&.m p X -       p C     C p       p [ C p C C p     9 ",
"  p     C             # O.B s * a $.u.F.G.F X v :.7.p.J.I.U.I.A.6.j k S.F.d.6.B h   p p     C       C C p C   [ C C       p C p ",
"                        X # & c o.$.7.A.F.H X X a B %.u.K.Y.Y.K.7.d f e.H.p.@.p   Z   C     p     C   C [ [ C C C       | | p p ",
"                    C       X # a a B 8.p.>.d * =.7.y.p.K.Y.Y.K.q.j X M f.K.0.d         p           C [ [ [ C   C C   | N.) | p ",
"    C                         O K O $ O.8.p.e.3.q.p.D.K.I.Y.I.S.,.g   $ 9.I.G.=.v #     p p p C p C   p [ [ C C   p | N.[ | p p ",
"[                     X *   3 R v.Y O * <.D.P.D.6.y.F.I.U.I.K.w.G =   X &.i.S.u.#.p           p p [ [   C [   C C p | [ | C C p ",
"                      O.>.g T M.Z.M.E = @.8.i.7.X.6.F.I.U.I.F.:.,   &   # V 6.%...p         p   p   [ C C   C [ e C | |   C | | ",
"                    p H d.l ~ W.^.^.V.Q x l N f a o.u.F.L.K.w.x . &       & ....s p         p   p p C [ C C C C     | C   | N.[ ",
"                    Z M 3.l l.Q.)._./.Z.b.v. .K 3 d =.u.S.r.J ; .     &   # p p &   C   p &   C C C C p C p C C C C C C   N.` N.",
"                    C a o.< l.W.(._.(.^.Q.W.R.M.~ K l @.>.J 5 O           < 7 7 8 3 C C p p   C   C p C p e C C C p C C | | N.N.",
"  C     C   C   C p   s s % R Z.(._./.Z.x.R b.Q.Z.v.Y = z K K 8 O -     ; U v.V.N.v.P . C C           C p   C C C   p C N.] N.] ",
"C     p [ C   [ [ p   p Z . 7 v.Q.(.(.Q.v.U U b.E.b.U ~ x.v.v.l.7 O     3 l.R.^./.E.v.P .   C       p     p p   p e p   ] N.| p ",
"    C C [ C   [ C   [ ] i   O U b.Q.(.(.Q.b.U K b.z.! V.Q.~.Q.Z.x.6 - 3 R N.^.)._./.R.Y 2 C C   C   C C p C C [ C [ p p |       ",
"p   [ [ [     [     | ]   ) y O U b.Q.(.).Q.v.5 5 ~ V.Q.(.).)./.V.U ; R N.^.)._._.).Q.E a C p     p p   C C   C C [ C C [ p   9 ",
"    [ [ C   p C   p   [ p ] e - O L b.Q.(.(.N.O 8 b.Q.(.)._._.(.R.! 5 b.~.)._._.)./.V.R = C   p C       p p C p   [ [ C | C 9 9 ",
"p       p   [   C C p       & i y O U b.Q./.V.K z.R.(._._._._.(.E.! K V./._._._.).~.b.S / [ p     p   p [ | p & C C [ p C [ 9 9 ",
"C [ C p p ] |       C   p   C [ )   O U M.E.V.z.N.~._.)._._._.(.R.E U W.(._._._./.R.! % - p p p C p C C C | |   p C p   C C 9 9 ",
"C C | C C | p C     C p   p   | p     O K x.b.N.E./._._._._.)./.N.U ! ^._._.)./.E.v.7 + t C p C p C   [ p p [ p C C   C p C   9 ",
"[ C [ C [ [ p [ | [ C   p p p       #   . U v.E./.(._._._.)./.Z.l.K x./._._.(.W.v.K O : ' [     & C p [ p C e p       C       ^ ",
"[ [   C C C p p [ [ C p [ [ p           3 R N.^._._._._.)./.R.l.8 R V.(._./.W.v.r + : & p | C C p p p | | p p p     p         ^ ",
"C e C C C C | C p p C | [ | p ) & & w 3 R b.Q.)._._._.)./.R.x.8 3 x.^.).(.W.v.r o w ] [ p e C C p C C C [ p | | p             ^ ",
"C C C   C [ [ C   p C [ C C [ [ h | _ U v.Z.~.)._._.)./.Z.x.3 O U V./.^.R.x.8 %     [ | [ C C [ [ p p C C   p [   C     p   9 ^ ",
"C C C C C |   C [ [   C C p | [ p ' w U N.~.)._.).)./.R.x.6 . 7 M.R.N.v.T 5 o : ] e C   | C C C | | p [ [ |   p C | C p C   9 ^ ",
"C C C     C C | | C C C C C p C e )   K N./._._.)./.R.l.7 . O R M.v.K ; o 0 - e | | C C     C C p | [ [ | | [   C [   C     9 ^ ",
"C C   C   C   [ [ [ | [ [ C e C   e - 3 c.W./.^.Q.V.l.7 .   5 E L 4 + o   | )   C [   C   C C C e C [ C C C [ C [ p   [ C   9 ^ ",
"e p p p p   C p C   C   C C C C C e y O U c.M.v.E 7 O .     . O .     1     &             | [   C   C C C   C C p C p | |   9 ^ ",
"p C   C p C C p C C       C C | C ) 1 - ; 7 A 6 O   # :                   C         p C p C |     [ | C C [ C     C ] N.[   9 ^ ",
"      p C p &     C C C C   [ C C C & 1 y @   o   1 C         C C C       p C p       C p       C | [ C C | [ p   p | [ [ 9 9 9 ",
"& p   p     C C C     C C C C C C [ [ e 1 ] ) e & e p           C         p p p     C C   C C C   [ C p [ | C [ p | ] | | 9 ^ 9 ",
"p p   C C         C C   p   p C [ [ C | C e [ C C   C   C       C C   C   p C &     C   C C | C   C [ p | C [ [ ] N.N.| | 9 ^ 9 "
};
