/* XPM */
static char *result[] = {
/* columns rows colors chars-per-pixel */
"64 64 206 2 ",
"   c #000101",
".  c #030906",
"X  c #080807",
"o  c #02040C",
"O  c #030B0B",
"+  c #0C0C0C",
"@  c #100F0F",
"#  c #001107",
"$  c #05140B",
"%  c #0F110F",
"&  c #021B0D",
"*  c #11110F",
"=  c #010214",
"-  c #010A14",
";  c #090C13",
":  c #00011C",
">  c #010B1B",
",  c #0A0D1B",
"<  c #100F1D",
"1  c #011513",
"2  c #0E1213",
"3  c #011A16",
"4  c #04111C",
"5  c #001D1A",
"6  c #131313",
"7  c #161916",
"8  c #181817",
"9  c #13141A",
"0  c #151C1A",
"q  c #1B1C1B",
"w  c #002400",
"e  c #012B0E",
"r  c #072217",
"t  c #002D14",
"y  c #00221E",
"u  c #132017",
"i  c #1E221E",
"p  c #033618",
"a  c #003B1A",
"s  c #000020",
"d  c #020D23",
"f  c #040828",
"g  c #000C2C",
"h  c #071426",
"j  c #01122D",
"k  c #141A24",
"l  c #1C1D24",
"z  c #151C29",
"x  c #000834",
"c  c #040A38",
"v  c #021335",
"b  c #081735",
"n  c #001A34",
"m  c #001C3B",
"M  c #091A3B",
"N  c #1C1D32",
"B  c #002420",
"V  c #0F2522",
"C  c #1F2224",
"Z  c #082237",
"A  c #00243E",
"S  c #122032",
"D  c #232423",
"F  c #272A27",
"G  c #24262A",
"H  c #2B2C2B",
"J  c #302F2D",
"K  c #27312A",
"L  c #2E312F",
"P  c #242636",
"I  c #302F32",
"U  c #2C363B",
"Y  c #323332",
"T  c #363936",
"R  c #32363C",
"E  c #363A3A",
"W  c #3C3D3C",
"Q  c #004800",
"!  c #004213",
"~  c #00451F",
"^  c #005318",
"/  c #005C1B",
"(  c #00661E",
")  c #00691F",
"_  c #004820",
"`  c #15492C",
"'  c #3E413E",
"]  c #23573A",
"[  c #006C20",
"{  c #42403F",
"}  c #020C46",
"|  c #001343",
" . c #021A46",
".. c #011D4C",
"X. c #191E45",
"o. c #001C53",
"O. c #031957",
"+. c #1D1D54",
"@. c #012544",
"#. c #042844",
"$. c #002348",
"%. c #182947",
"&. c #012355",
"*. c #002B53",
"=. c #00245A",
"-. c #012C5D",
";. c #1C2B58",
":. c #00355D",
">. c #343746",
",. c #233250",
"<. c #373953",
"1. c #022564",
"2. c #002B64",
"3. c #002B6C",
"4. c #003363",
"5. c #013469",
"6. c #003A6D",
"7. c #17356B",
"8. c #003373",
"9. c #003B74",
"0. c #003B7B",
"q. c #093D7A",
"w. c #273663",
"e. c #343D6A",
"r. c #3E4045",
"t. c #364159",
"y. c #12456B",
"u. c #004175",
"i. c #00447B",
"p. c #00497D",
"a. c #354865",
"s. c #264775",
"d. c #3E5674",
"f. c #434443",
"g. c #454945",
"h. c #474648",
"j. c #4B4D4B",
"k. c #4E514E",
"l. c #51504E",
"z. c #4A4E56",
"x. c #4F5153",
"c. c #535553",
"v. c #565956",
"b. c #575758",
"n. c #5B5C5B",
"m. c #5E615E",
"M. c #61605F",
"N. c #434866",
"B. c #515664",
"V. c #474D76",
"C. c #445977",
"Z. c #5D5E77",
"A. c #58636E",
"S. c #646464",
"D. c #666A66",
"F. c #666769",
"G. c #65696C",
"H. c #6A6C6A",
"J. c #6E726E",
"K. c #6A6C76",
"L. c #6F7279",
"P. c #737473",
"I. c #767976",
"U. c #75757B",
"Y. c #787878",
"T. c #7B7C7B",
"R. c #7F807F",
"E. c #003E80",
"W. c #004485",
"Q. c #004C85",
"!. c #004688",
"~. c #004B8C",
"^. c #00538A",
"/. c #165182",
"(. c #004F91",
"). c #005494",
"_. c #015996",
"`. c #00579A",
"'. c #005C9C",
"]. c #285184",
"[. c #005EA0",
"{. c #0062A3",
"}. c #6F7086",
"|. c #7E8186",
" X c #838483",
".X c #878887",
"XX c #8C8C8C",
"oX c #8F908F",
"OX c #8F8F98",
"+X c #908F90",
"@X c #919191",
"#X c #92949C",
"$X c #9C9C9C",
"%X c #A3A3A3",
"&X c #A5A6AB",
"*X c #ABACAB",
"=X c #AFB0AF",
"-X c #A8AEB8",
";X c #B4B5B4",
":X c #BCBCBC",
">X c #BFC0BF",
",X c #BDBEC0",
"<X c #C0BFC0",
"1X c #C1C1C1",
"2X c #CACBCA",
"3X c #D3D3D3",
/* pixels */
"      : B               s :         y     s B   : 5 r ` N P P ] N ` f 5 p : s _ [ s s B B   _ B _ s _ _ B s B B [ [ ) H.) w Q w ",
"B s s                       B     s   s s y   : 3 2 D h.H.T.|. XU.M.E 8 2 p y y [ B B _ s s [ _ B s [ [ B _ s s D.H.H.[   w Q [ ",
"  B _   s s s       B   :       B     B     O + H h.S.XX&X;X*X;X=X%XT.b.W l 3 & s s B B B B _ B _ s _ s B _   B [ [ s B B _ w H.",
"_ B _     [ [   :   s B     s       y s X V H r.F.XX%X;X1X1X1X1X1X<X*X$XR.v.T D <   B   _   B B [ s B B   B _   s _   B _ _ _ ) ",
"_ _   _ B B   [ _   s B     s B s s y   8 E n. X%X:X1X1X<X1X<X1X<X<X1X1X;X#XR.b.H V     B _ B B s B _ _ _ B B B _ _ y ) J.~ ~ w ",
"_ [ B B _ B s s   _ s _ B     _   B   1 H n.R.%X:X<X1X<X1X<X1X1X<X1X1X1X:X:X;X+Xv.H p f   B [ B B _   B s B B y _ ~ [ D.~ D.J.w ",
"B _ _ B s B B : B     s   :     B   : < { T.%X:X<X<X<X1X1X1X<X<X<X<X1X<X1X1X1X$Xc.q 3     s B _ B s   B B B     _ _ [ J.) J.[ : ",
"B B _   s         s s B _     _ _   X H S.$X:X1X<X:X=X;X1X1X1X1X<X<X1X1X1X:X*XY.W @             s     B     s   _ B [ ~ D.[ w : ",
"y   B B B s _ B s   B B _     _ [   + f.XX;X1X1X<X=X.X@X=X;X:X1X1X<X1X1X<X&XP.W 8 X     :         :           s _ _ [ H.) B d w ",
"B   B s B B [ [ ~   _ _     [ [ ~   6 v.$X:X1X<X<X$Xb.l.P.XX=X:X>X>X>X<X%XP.{ 8                                 [ B s     B   w ",
"s   s   _ [ s ~ _           B y   9 f..X;X:X1X1X<X*XJ.Y q H W l.S.R. X XJ.{ 8     =     + H h.j.l.{ 8           B d y B s     w ",
"      s B _ _       :     _ B :   q S.&X:X<X1X<X<X:X$XH.{ H * X 8 J Y T H 9 ; : > o   + H M. X$X$X.Xn.J q ,   s B B   y s B   w ",
"_ B   _ B B [ _   [   B   : B     K P.*X<X1X1X<X<X<X:X=X#XF.Y 8 6 8 8 6 + o f O...>   D n.T.%X:X<X:X%X Xn.D   :       B       Q ",
"[ [   _ [ B s s B B :     s B   e ' @X<X<X<X1X<X<X;X+Xn.H k c <.U.$X%X.Xl.l ..9.8.o.d D n.T.%X:X1X<X:X%XY.W <       s         Q ",
"  [ : B _ [   B B   _ B _ ~   1 i n.*X1X<X<X<X1X;X+Xb.D i h.}.OX=X2X<X X>. .9.).~.1.g 9 W H.$X:X<X1X1X:X%XS.D X :             Q ",
"B [ _   s _       _ [ B B y 5 3 Y R.=X<X<X<X:X;X+Xb.D X H P.%X:X*X$X%XM.< =.~.{.).2.d O 8 h.XX:X1X1X1X1X;X.XE ;   y     :   w Q ",
"  s s       y s B _ _ _ _ s a 2 >.XX;X1X1X1X:X@Xv.D o o l b.T.$XY.{ I.M.S 5.).[.~.1.d . X D P.=X1X<X1X1X;X@Xl.@ 3 ) B s B   w Q ",
"B s s s       _   ~   _   s p & { XX;X1X1X1X;XH.D , v c } ;.B.Y.v.J v.j.S i.[.).0.O.:     q n.$X:X<X1X<X<X;X.Xf.0 t   B     w Q ",
"s B s   B   s       _   s _ a 1 ' .X;X1X1X:X@Xh., v 2.8.8.5.w.B.b.{ a.y.u.^.`.W.=.g g d o 6 h.T.%X;X:X1X1X1X$Xb.0 =   _ B   w Q ",
"    s s s B s     s s     : : X ' XX;X1X:X%XY.J j 1.W._.`.!.q.s.A.C./.).[._.9.=.| m 4.-., o H b.R.&X1X1X1X<X%XS.q 1 s [ [   w Q ",
"s     : y B s   : s         : 3 >..X;X:X%XR.b.D m 9.`.'.'.'._._._.'.'.'.`.i.m d O.Q.'.!.$.> 6 Y S.%X:X<X<X<X%XS.8 1 ) H._   w Q ",
"  B   s B s                   o T J..X XP.c.H b 4.).{.{.'.i.@.h m 4.W._.[.`.Q.p.~.`.).0.o.>   6 E I.*X<X<X>X%XM.q = ) _ _ w w w ",
"  B s   s B   s   B     :     X J M.D.z.t.,.M O.!.[.{.'.u.@.m A *.6.*.@.:.9.(.{.{._.0.=.v , X   6 { T.&X:X<X%XS.l ! ) [ [ w Q w ",
"    B B       y     s s   s     D j.N.7.1.O.o.2.6.p.Q.6.@.m 5.).{.^.$.4 n =.5.9.u.5.=.M G F + X @ 8 h. X*X:X%XM.i { S.[ [ w Q w ",
"    y     B       s s   s B y   X 4 -.W.8.c = o - ; - O n 6.).'.{.[.`._._.^.@.O O o o R x.i 6 Y { D I S..X%X#Xj.u ! ) H.) w Q w ",
"          B       : B   B B y     j 9.~.=., 6 H h.l.l.h.I M 6.`.{.{.{.{.{.'.9.*.x o   6 D q I b.n.D @ F f.F.M.H 7 ' D.[   w Q [ ",
"      s   B B B   s     : 5     . Z p.q.v 2 I n.R.$X$X@XH.R Z 2.W.(.).).(.!.4.$.g o X   + J S..XJ.H     * F D 2 e ^ : B B _ w H.",
"      s :   B B     B   :     % 6 Z 5.O.: l c.T.$X:X1X1X=XT.Y s } 2.9.8.3...d X @ q F 8 8 b.$X%XH.D           o : ~   y _ _ _ ) ",
"    B   s s       : B B       i ' t.X.s ; Y H.%X:X<X1X<X>X%XH.H X : x } x > 6 Y S.@X.Xh.Y  X:X XW I 6   =   : y ~ _ y ) J.~ ~ w ",
"s : B     B         B y :   + Y m.J.b.l + r.XX:X<X<X<X1X1X:X%XP.j.I < = = 6 T H.$X:X;XH.h.+X<X XJ 8 ;   3 B s   _ ~ [ D.~ D.J.w ",
"  B B   B s y B B   : : = 9 L c.I..XT.T @ f.@X;X1X<X<X1X1X1X<X*X#XY.{ @ 6 Y n.@X:X1X1X@XY.%X<X@Xf.@ +   5     y _ _ [ J.[ H.[ : ",
"s s B B     B s   B 5 = X Y n.I..XXXT.W 8 Y H.%X:X<X1X<X1X1X1X>X1X=XR.I q h.H.+X;X<X1X:X<X:X:X$Xn.D @   3 B : d _ B [ ~ H.[ w : ",
"      B s B B B   y     X { I.oX+X.XR. Xl.q J H.$X<X<X<X1X1X1X<X1X;X.X{ + @ D h.R.=X<X1X<X<X%X Xc.D 6   o : 5 s _ _ [ H.) B s w ",
"      B   B   y       o % j..XoXXXT.T.$X%XM.D I S..X%X;X1X1X1X<X1X1X*XP.H 6 h. X$X;X<X%XL.Z.V.a.,.k q 6 O     B [ B s     y   w ",
"  y                     7 c..XoX X.X@X&X;X$Xj.i D f.M..X*X;X<X<X<X1X1X$Xl.H P.;X1X<X;XP.P ..3.3.o.h F D +   = _ B s B B s     w ",
"  s     y             + F m..XR.Y.$X:X=X%X%XXXf.@ 6 D { S. X%X;X:X;X:X$Xb.D l.$X;X:X$Xl.z -.).!.&.d T W 6 .   _ B B       s B s ",
"                    X 0 ' H..XR.P.%X3X1X*X%X%X.XP.l.8 @ i Y h.M.P.Y.Y.n.H @ D J.;X:XXX{ k :.!.0.o.d T g.8 # 3 y B       [ ) d : ",
"                    X Y m.R..XI.P.%X3X3X2X2X2X*X+XT.c.{ J 8 X q J W W D + X J K.#X+XM.F ; j  .m b >.c.j.8 # 5   B y   [ H.~ [ s ",
"    y             . 8 ' H. XXX XR.@X;X2X3X3X1X&X@X.X X.XB.l - > , 8 8 +   6 l.T.J.c.Y 6       X J H.P.k.8 # 5 B   s [ H._ [ s s ",
"~                 X D g.H. XXXoX.XR. X=X3X1X%X@X@XT.U.@X}.;.2.0.*.= X   + l f.M.c.J l 8 X X   T P..XP.j.8 #   y B s [ _ [ B B s ",
"                  * K j.H. X+X@XoXI.P.%X2X;X@XoXXXT.F.Z.w.1.W.E...k h.M.{ q 6 8 8 + X H n.H.S.P.R.R.J.k.8   3 _ B B [ [   B [ [ ",
"                . * F j.H. XoX@X.XI.J.%X2X:X@XoX+XT.F.N.O.8.Q.4.%.n.R..XP.c.h.f.>.{ { M..X+X+X.XI.J.J.k.8 o 3 B     [ B   [ H._ ",
"                  * K g.H. XoXoXoXI.J.#X,X-X#X%X%X+XL.a.7.~.E.m >.+X$XXX+X.X X+X%X%X@XXXoX+XoX.XJ.H.H.k.C o 5 B B y B B   J.~ H.",
"                . * F j.H.R.oX+XoXI.G.d.8.7.].|.<X&X|.d.E.~.8.c E R.+X+XXX XI.+X;X;X$X+X+X+X+X XJ.D.D.c.H 0 r B B s B B ) ) H.D.",
"  B     y   5     * K j.H.T. XXX@X}.K.e.3.!.~.].V.<.>.%.9.~.8.} <.U.+X+X+X XT..X*X;X%X$X@XoX+X.XJ.J.J.D.g.F r 5 y   s B D.) D.[ ",
"y     s _ B   & . * F j.H.J.P. XoX.XP.>.O.!.).W.3.o.g | 0.Q.=.g >.U.+X+X+XXX.X X.X$X:X:X$X+X+X XJ.J.R.R.D.' 9   : B s   [ J.[ : ",
"    B B _ y   & . * F j.M.H.H.R.oX@XR.{ z &.8.~.`.~.1.3.(.Q.A o G H.+XOX$X%X%X$XoX%X2X2X=X$X@X.XI.R..X.XI.k.0 . 3 ~ s : [       ",
"s   _ _ _     & . * F k.H.H.H.R.oX@X@X}.h.b o.3.8.W.)._.'.'.^.A = 9 X.+.V.&X<X<X:X1X3X3X2X;X$XXX.X.XoX.XI.k.8 . 5 _ B B _ s   w ",
"    ~ _ B   : O   X i W c.m.J.R..XoX+X+Xc.6 > > g n A @.A *.p.u.4.:.-.| <.$X1X>X:X1X3X3X2X;X$XXXoX+X@X.XI.k.0     _ _ B [ B w w ",
"s       s   ~     X % D T c.D.J.I. XoX.Xj., > d d -       = A 9.).`.!.@.Y  X%X$XXX%X2X2X*X$X#XXX+X@X@X.XP.k.8 o 3 B _ s B _ w w ",
"B _ B s s [ /         6 D W k.k.k.m.P.I.l.z  .2.2...4 @ 6 @ 6 M -.8.6.#.U P..X.X.X$X:X;X$XoX@X+X@XoX.XR.S.' 6   : B s   B B w w ",
"B B [ B B [ : O       6 i i i 0 i L { n.H.c.z > - z x.I. X.XT.r., > 4 >.P.R.I..X*X;X*X$X+XoXXX@X+X.XT.S.g.F + o 3 B   B s B   w ",
"_ B ~ B _ _ : &       * 7 % X * q L W g.k.c.g.f.h.n.R.+X+X@XoXJ.c.j.k.H.XX XI.oX;X;X$XoXoX@XXX@X@X.XI.v.Y 0 X         B       Q ",
"_ _   B B B : o         X % 0 L g.M.S.h.D K f.v.P. XoX+X+XXXoXoXoXXX@X@X+XXX.XoX%X%X+XoXXX@X@X@X@X.XI.c.L 7 .       s         Q ",
"B B B B B B ( O       . X i T k.H.R..Xb.H F T g.n.J..XXX+X+X+X+XXX+X@X+XoX+X+X+XoX@X+X+X@XoX.X.X.XR.S.j.F 6 & e :             Q ",
"B B B   B _ a O       X i T c.m.H. XXXY.S.v.k.{ ' k.P. XoX@X+X+X@X+X+X@X+X@XoXoX+X+XoXoX@X.XT.I.I.D.g.K 6 X o p   y     :   w Q ",
"B B B B B [   1 #   . * F g.D.H.H.I..X.X XT.H.g.D T v.P..X.X.XXX@X@X@X+X+X+X+X@X@X@X.X.XXXT.D.v.c.f.F 8 $ e   : y [ B s B   w Q ",
"B B B     y y / ! O   * F k.D.J.H.J.I.I.I. XR.g.* 0 T c.P.T.Y. X+X@X@X+X@X@X@X@X@X.XT.Y.I.D.g.J F q + & p ^ ~   B _   B     w Q ",
"B B   B   B   ~ a &   + i ' m.M.H.H.H.H.J.R.R.g.% . i T k.v.c.m.J.P.P.T..X.X.X XT.H.n.v.c.g.F 6 O O # O 3 y ~ B _ s   _ B   w Q ",
"B s s s :   B s y     . % i ' v.H.J.H.H.H.I.J.' X   X 6 C D D F H Y I j.H.Y.Y.S.j.T F D D 0 @ X 1   1 3 y   B B s B s [ [   w Q ",
"s B   B s B B s 5 1     . % i ' c.v.c.c.c.v.c.L O     O X   X X X . X D j.m.v.g.F 6 O O o . $     ~ ) y B _ B     y ) H._   w Q ",
"      s B s s     5 1 .   . + 7 D F D D D D D 0   3 3         1 1 1   @ D P U N + X   1 =       y ) _ y B [ _ s   d ) _ _ w w w ",
"s s   s     B B B     $ . . . O O $ & ; O & & 1 : y :           y         f d d     y y   y y y   _ B s _ [ B _ : [ ) [ [ w Q w ",
"s s   y B         B y   =   = 1 t t 1 ! 1 1 t 5 y   B   B       B B   B   s B s     B   B B [ B   B _ : [ B _ _ [ H.H.[ [ w Q w "
};
