/* XPM */
static char *c8bd1124c2264fe8a70b71f390a9d1bcy9mRNUj4ekWmaBOm[] = {
/* columns rows colors chars-per-pixel */
"64 64 91 1 ",
"  c #020101",
". c #0B0201",
"X c #0E0803",
"o c #0C0A09",
"O c #130303",
"+ c #1B0504",
"@ c #140903",
"# c #1B0B05",
"$ c #130708",
"% c #190708",
"& c #140A0A",
"* c #1B0D0C",
"= c #1D1004",
"- c #16120D",
"; c #1E120C",
": c #1D1212",
"> c #1F1914",
", c #1E1A1B",
"< c #220502",
"1 c #230D05",
"2 c #2E0E00",
"3 c #220F0C",
"4 c #241305",
"5 c #2C1502",
"6 c #2D1A07",
"7 c #24140C",
"8 c #29160C",
"9 c #25190F",
"0 c #2D1B0D",
"q c #331500",
"w c #3B1500",
"e c #351B05",
"r c #3B1D03",
"t c #30170A",
"y c #331E0B",
"u c #3A1E09",
"i c #221514",
"p c #261B15",
"a c #2B1D12",
"s c #231D1A",
"d c #281F18",
"f c #301F10",
"g c #362005",
"h c #3C2004",
"j c #34200C",
"k c #392008",
"l c #2C2014",
"z c #26201B",
"x c #282018",
"c c #312010",
"v c #431D01",
"b c #401F01",
"n c #471D00",
"m c #441F00",
"M c #491F00",
"N c #4A1F03",
"B c #402000",
"V c #462000",
"C c #462601",
"Z c #412104",
"A c #432004",
"S c #432607",
"D c #452507",
"F c #492200",
"G c #482203",
"H c #4D2100",
"J c #4B2600",
"K c #4C2502",
"L c #4C2704",
"P c #452804",
"I c #4B2905",
"U c #452108",
"Y c #502100",
"T c #562200",
"R c #502600",
"E c #552700",
"W c #582100",
"Q c #582702",
"! c #5D2600",
"~ c #522A00",
"^ c #542B00",
"/ c #532D00",
"( c #552D01",
") c #5B2A00",
"_ c #5C2800",
"` c #5C2D00",
"' c #543100",
"] c #543002",
"[ c #5E3000",
"{ c #593400",
"} c #603100",
/* pixels */
"BBBVbrBVFHH`[FT_/YYHQg7BBmmBVVBhBBBVVVFVBrrBVFTWHYFFE)hVVYYVBhku",
"BVhJFBBBBBBH!EHT[{VHTJ5jlkhhkhkhBVhJFhhhBBBBBVBHL(~'QE4hhVhhhjjB",
"BBBBBBBBhhhhVVkhH^RFFm4jclllzzkBBBhhkxllhhhhVBrycjhDSY4yjhhjjkBB",
"hhkhhBVRFhhjkBjcerBVF~#ejyrhkllckkllappspxlckZSr8ip7pH40jhhkkhhk",
"hhkBhkhZZZkhhhjhrhjkFE@0kurhjkljhkkhkur0piisp7ayq<%*:P4-jhhhjjjh",
"khjkklcllklkVCjkBJDkhMX5jllljlljhhkjlkjjkea:*%*:310yak=.7llljllk",
"jjljjlkkssjcjkkkhhBhZm@ekjljhassaylcllappae0957tyyejkI-.0jljhyyk",
"ssplxlckaajllljhhjhBBJ#0jjcyaaps,ssaiiii8yjyackhjaykjK@Oajjyaaap",
"p,iallljkjkkjkkhkhBBBY4:lllljjja7i8yaaeyhkk037ylxljhkB..slllfjjp",
"jkkhypssllljjhBhhBhhVV#.4pssalljyjhhlklppsp883+::ippye.O+spallll",
"pclkueppslsspyeclaakBe& O&**:ii:py00ss:&:i**%OOOO*:33wX.O**;iiii",
"&s:acy8pppssii*ssiii78& ....O++O&*:***OXO$&%OO71O..OO5.O...$O++O",
"O+&*>9i3i77*&*::7pss0rX    ..........O*%1#...O*;*$..X7. .O.*$@@O",
".O.O..X+O....OO..+isp5.     ...      ..OO-X  ... .  .*.  .OOO##O",
" . ... .. ..     .O+..        .XX..               .. .     .  ..",
"rr55qwq5558145q5#@;55rhhhrrqqrI^'98q5#@;5qq55q5q48ur4@#4qqqwbwDb",
")_hFVYYVBBkuBBVFBrBVHHY`}FW_(YYHQg7BVVmBVVVhBBBFVFHVBrhVVFWWYTHH",
"QE4hhVBhhjjBBVhJFBBBhBBH!EHT[{VHTJ5jlkhhhhkhBVhJFhhhBBBBBVBHL(~'",
"DY4yjhhjjkBBBBBBBBBBhhhhVVkhH^RFFm4jclllzzkBBBhhkxllhhhhVBrycjhC",
"pH40jhhkkhhkhhkhhBVRZhhjkBjcerBVF~#ejyuhklljkkllappspxxckZSr8pp7",
":P4:jhhhjjjhhhkBhkhZVZkhhhjhrhjkFEX0kurhjkljhkkhkur0piisp7ayq<**",
"ak=.7llljllkkhjkklcllklhFCjkBJDkhFX5jllljlxjhhkjlkjjyep:*%*:310y",
"kI-.6jljhyyhjjlcjlkkssjcjkkkhhBhZmXekjljh0ssaylcllapp0e0958tyyej",
"jK@OajjyaaapssplxlckaajllljhhjhBBJ#0jkjyaaps,psaiiii8yjyackhjayk",
"kB..slllfjjppsialllkykkkjkjkkhBBBY4:llllcjja7i70aaeyhkk037ylxljh",
"ye.O+spalllljkkhypssalljjkhhhBhhVV#.4pssalljyjhhlklppsp883+::ipp",
"3wX.O**:iiiipjlkueppslsspyejcaakBq& O&**:ii:pyyass:&:i**&OOOO*:3",
"O5.O...$O++O&s:acy8appssii*ssiii78& ....O++O&*:***OXOO&%OO71O.XO",
"X8...O.*O@@OO+&*i9i3i77*&*::7pssarX    ..........O*%1#...O*;*$..",
".*.  .OOO##O.O.O..O+O....OO..%isp5.     ....     ..OO=X  .....  ",
" .     .  .. . ... .. ..     .O+..        .XX.      .         . ",
"4@#4qqqwrwDbrr55qwq5558145q5#@4q55q5554@45bb6=X    o6e7#=er55eae",
"BrhBVFWWYTHH)_hFVYYVBBkuBBVFBreFVYYVBBkuBBBVbr:..XX>KFBM7qh5mWVV",
"hBBhBVBHL(~'QE4hhVBhhjjBBVhJFe4hhVBhhcjhBVhJFhpX.@%0QEBFF1$%uHBB",
"hhhhVBryckBCDY4yjhhjjkBBBBBBBr4jjhhjjjBBBBBBBByOOateFFBhVF2O-6rB",
"pxlckZSr8pp7pH40jhhjkhhkhhkhhr=0jhhjkhhkhhkhhBV8oahykBhjkBhe45mR",
"piisp7ayq<%*:P4:jhhhjjjhhhkBhk4:jhhhjjjhhhkBhkh5.7khhhjhhhkBhkhZ",
"yea:*%*:3100ak=.7llljllkhhjkkl=.7llljllkhhjkklc4@6lkFClkhhjkklcl",
"p0e0p57tyyejkI-.6jljhyyhjjljcl-.6jljhyyhjjlcjlky+ajcjkkhjjljclkk",
"8yjyackhjayjjK@OajjyaaapssplxaXO0kjyaaapssplxlcu8ajllllpssplxlck",
"hkk0370lxljhkB..illlfjjppsiala..slllfjjppsialllkyykkjkjppsialllk",
"psp883+::ippye.O#spalllljjkhyi.O#spalllljjjhypssllljjklljjkhypss",
":i;*%OOOO*:33wX.O**iiiiipjlke6..O**iiiiipjlkueppslsspaiipjlkuepp",
"O$&%OO71O.XOO5.O...$O++O&s:ac0.O...$O++O&s:acy8appssii+O&s:acy8a",
"1#...O*;*$..X8...O.*O@@.O+&*i7...O.*$@@OO+&*ipi3i77*&*@.O+&*ipi3",
"O=X  .....  .*.  .OOO@#O.O.O..   .OOO##O.O.O..O+O....O#O.O.O..O+",
".         .. .     .  .. . ...     .  .. . ... .. .. ... . ... .",
"554#45q5#@pt5rq5#@=55rShherqqmhbS@4555tq44qq4<#4qqrmrwDrwr55qwq5",
"BBkuBBBVBrBVHHVFBrBVHHY`}FW_(YYY)g6FFHVFVFHVBrhVVFWWYTHH)_hFVYYV",
"hjjhBVhJFBBBBBBJFBBBBBBH!EHT[{VHTC4hhVBJFhhhBBBBBVBHK(~'QE4hhVBh",
"jkBhBBBBBBBBhhhBBBBBhhhhFFkhH(RFFM4jjhBhkxllhhZhVBryckBJDY4yjhhj",
"khhkhhkhhBVKZhkhhBVKZhhkkBjcerBVF(40jhclappspxlckZSr8ip7pH40jhhj",
"jkjhhhkBhkhBVZkBkkhZVZkhhhjhrhjkF`4:jhkhkurapiisp7ayq<%*:P4:jhhh",
"cllkhhjkklcllkjkklcllklhFCjkBJDkhR4.7lkjlkjjyep:*%*:3100ak=.7lll",
"hyyhjjljjlkkssljjlkksdjjjkkkhhBhZF-.6jljllapp0e09576yyejkI-.6jlj",
"aaapssplxlckasplxlckaajllljhu0rutr@O0jlypxii7yfyackhjayjjK@O0kjy",
"fjjpp,ialllkkypalllkkkkkjkkkeeh05w..sllla85yukk037ylxljZkB..slll",
"llllyjyhypssllyhypssalljjkhhrBy4Vb..%ss0*=aaasp883#i:ippye.O%ssa",
"iiiiajlkueppsalkueppsls,pyejca8uVq ..&&.*p:&::;*%OOOO*:*3wX.O**i",
"O++O&s:0cy8app:acy8appssii*s,;7pp7.O.  X++OXO$&%OO71X..OO5.O...$",
"$O@OO+&*ipi3i;&*ipi3i77*&*:&oissar..o .*$@%%1#...O*;*$..X8...O.*",
"O##O.O.O..O+O..O..O+O....OO..%isp5. .. .O#.OO=X  .....  .*.  .OO",
"  .. . ... ..  ... .. ..     .O+..      ..            .  .     .",
"5rShher5qmBrS@4qq1@=55rq5q5q44qq4@#4qqqrVUhrwr5555q555a345q5#@=5"
};
